999
dxfrw 0.6.3
  0
SECTION
  2
HEADER
  9
$ACADVER
  1
AC1021
  9
$DWGCODEPAGE
  3
ANSI_1252
  9
$INSBASE
 10
0
 20
0
 30
0
  9
$EXTMIN
 10
-129.1350257465677
 20
-41.25
 30
0
  9
$EXTMAX
 10
86.40000000000001
 20
52.7481364430985
 30
0
  9
$LIMMIN
 10
0
 20
0
  9
$LIMMAX
 10
420
 20
297
  9
$ORTHOMODE
 70
    0
  9
$REGENMODE
 70
    1
  9
$FILLMODE
 70
    1
  9
$QTEXTMODE
 70
    0
  9
$MIRRTEXT
 70
    0
  9
$LTSCALE
 40
1
  9
$ATTMODE
 70
    0
  9
$TEXTSIZE
 40
2.5
  9
$TRACEWID
 40
15.68
  9
$TEXTSTYLE
  7
STANDARD
  9
$CLAYER
  8
cover-mounts
  9
$CELTYPE
  6
BYLAYER
  9
$CECOLOR
 62
  256
  9
$CELTSCALE
 40
1
  9
$DISPSILH
 70
    0
  9
$DIMSCALE
 40
1
  9
$DIMASZ
 40
2.5
  9
$DIMEXO
 40
0.625
  9
$DIMDLI
 40
3.75
  9
$DIMRND
 40
0
  9
$DIMDLE
 40
0
  9
$DIMEXE
 40
1.25
  9
$DIMTP
 40
0
  9
$DIMTM
 40
0
  9
$DIMTXT
 40
2.5
  9
$DIMCEN
 40
2.5
  9
$DIMTSZ
 40
0
  9
$DIMTOL
 70
    0
  9
$DIMLIM
 70
    0
  9
$DIMTIH
 70
    0
  9
$DIMTOH
 70
    0
  9
$DIMSE1
 70
    0
  9
$DIMSE2
 70
    0
  9
$DIMTAD
 70
    1
  9
$DIMZIN
 70
    8
  9
$DIMBLK
  1

  9
$DIMASO
 70
    1
  9
$DIMSHO
 70
    1
  9
$DIMPOST
  1

  9
$DIMAPOST
  1

  9
$DIMALT
 70
    0
  9
$DIMALTD
 70
    3
  9
$DIMALTF
 40
0.03937
  9
$DIMLFAC
 40
1
  9
$DIMTOFL
 70
    1
  9
$DIMTVP
 40
0
  9
$DIMTIX
 70
    0
  9
$DIMSOXD
 70
    0
  9
$DIMSAH
 70
    0
  9
$DIMBLK1
  1

  9
$DIMBLK2
  1

  9
$DIMSTYLE
  2
STANDARD
  9
$DIMCLRD
 70
    0
  9
$DIMCLRE
 70
    0
  9
$DIMCLRT
 70
    0
  9
$DIMTFAC
 40
1
  9
$DIMGAP
 40
0.625
  9
$DIMJUST
 70
    0
  9
$DIMSD1
 70
    0
  9
$DIMSD2
 70
    0
  9
$DIMTOLJ
 70
    0
  9
$DIMTZIN
 70
    8
  9
$DIMALTZ
 70
    0
  9
$DIMALTTZ
 70
    0
  9
$DIMUPT
 70
    0
  9
$DIMDEC
 70
    2
  9
$DIMTDEC
 70
    2
  9
$DIMALTU
 70
    2
  9
$DIMALTTD
 70
    3
  9
$DIMTXSTY
  7
STANDARD
  9
$DIMAUNIT
 70
    0
  9
$DIMADEC
 70
    0
  9
$DIMALTRND
 40
0
  9
$DIMAZIN
 70
    0
  9
$DIMDSEP
 70
   44
  9
$DIMATFIT
 70
    3
  9
$DIMFRAC
 70
    0
  9
$DIMLDRBLK
  1
STANDARD
  9
$DIMLUNIT
 70
    2
  9
$DIMLWD
 70
   -2
  9
$DIMLWE
 70
   -2
  9
$DIMTMOVE
 70
    0
  9
$DIMFXL
 40
1
  9
$DIMFXLON
 70
    0
  9
$DIMJOGANG
 40
0.7854
  9
$DIMTFILL
 70
    0
  9
$DIMTFILLCLR
 70
    0
  9
$DIMARCSYM
 70
    0
  9
$DIMLTYPE
  6

  9
$DIMLTEX1
  6

  9
$DIMLTEX2
  6

  9
$LUNITS
 70
    2
  9
$LUPREC
 70
    4
  9
$SKETCHINC
 40
1
  9
$FILLETRAD
 40
0
  9
$AUNITS
 70
    0
  9
$AUPREC
 70
    2
  9
$MENU
  1
.
  9
$ELEVATION
 40
0
  9
$PELEVATION
 40
0
  9
$THICKNESS
 40
0
  9
$LIMCHECK
 70
    0
  9
$CHAMFERA
 40
0
  9
$CHAMFERB
 40
0
  9
$CHAMFERC
 40
0
  9
$CHAMFERD
 40
0
  9
$SKPOLY
 70
    0
  9
$USRTIMER
 70
    1
  9
$ANGBASE
 50
0
  9
$ANGDIR
 70
    0
  9
$PDMODE
 70
   34
  9
$PDSIZE
 40
0
  9
$PLINEWID
 40
0
  9
$SPLFRAME
 70
    0
  9
$SPLINETYPE
 70
    2
  9
$SPLINESEGS
 70
    8
  9
$HANDSEED
  5
20000
  9
$SURFTAB1
 70
    6
  9
$SURFTAB2
 70
    6
  9
$SURFTYPE
 70
    6
  9
$SURFU
 70
    6
  9
$SURFV
 70
    6
  9
$UCSBASE
  2

  9
$UCSNAME
  2

  9
$UCSORG
 10
0
 20
0
 30
0
  9
$UCSXDIR
 10
1
 20
0
 30
0
  9
$UCSYDIR
 10
0
 20
1
 30
0
  9
$UCSORTHOREF
  2

  9
$UCSORTHOVIEW
 70
    0
  9
$UCSORGTOP
 10
0
 20
0
 30
0
  9
$UCSORGBOTTOM
 10
0
 20
0
 30
0
  9
$UCSORGLEFT
 10
0
 20
0
 30
0
  9
$UCSORGRIGHT
 10
0
 20
0
 30
0
  9
$UCSORGFRONT
 10
0
 20
0
 30
0
  9
$UCSORGBACK
 10
0
 20
0
 30
0
  9
$PUCSBASE
  2

  9
$PUCSNAME
  2

  9
$PUCSORG
 10
0
 20
0
 30
0
  9
$PUCSXDIR
 10
1
 20
0
 30
0
  9
$PUCSYDIR
 10
0
 20
1
 30
0
  9
$PUCSORTHOREF
  2

  9
$PUCSORTHOVIEW
 70
    0
  9
$PUCSORGTOP
 10
0
 20
0
 30
0
  9
$PUCSORGBOTTOM
 10
0
 20
0
 30
0
  9
$PUCSORGLEFT
 10
0
 20
0
 30
0
  9
$PUCSORGRIGHT
 10
0
 20
0
 30
0
  9
$PUCSORGFRONT
 10
0
 20
0
 30
0
  9
$PUCSORGBACK
 10
0
 20
0
 30
0
  9
$USERI1
 70
    0
  9
$USERI2
 70
    0
  9
$USERI3
 70
    0
  9
$USERI4
 70
    0
  9
$USERI5
 70
    0
  9
$USERR1
 40
0
  9
$USERR2
 40
0
  9
$USERR3
 40
0
  9
$USERR4
 40
0
  9
$USERR5
 40
0
  9
$WORLDVIEW
 70
    1
  9
$SHADEDGE
 70
    3
  9
$SHADEDIF
 70
   70
  9
$TILEMODE
 70
    1
  9
$MAXACTVP
 70
   64
  9
$PINSBASE
 10
0
 20
0
 30
0
  9
$PLIMCHECK
 70
    0
  9
$PEXTMIN
 10
0
 20
0
 30
0
  9
$PEXTMAX
 10
0
 20
0
 30
0
  9
$GRIDMODE
 70
    1
  9
$SNAPSTYLE
 70
    0
  9
$PLIMMIN
 10
0
 20
0
  9
$PLIMMAX
 10
297
 20
210
  9
$UNITMODE
 70
    0
  9
$VISRETAIN
 70
    1
  9
$PLINEGEN
 70
    0
  9
$PSLTSCALE
 70
    1
  9
$TREEDEPTH
 70
 3020
  9
$CMLSTYLE
  2
Standard
  9
$CMLJUST
 70
    0
  9
$CMLSCALE
 40
20
  9
$PROXYGRAPHICS
 70
    1
  9
$MEASUREMENT
 70
    1
  9
$CELWEIGHT
370
   -1
  9
$ENDCAPS
280
    0
  9
$JOINSTYLE
280
    0
  9
$LWDISPLAY
290
    0
  9
$INSUNITS
 70
    4
  9
$HYPERLINKBASE
  1

  9
$STYLESHEET
  1

  9
$XEDIT
290
    1
  9
$CEPSNTYPE
380
    0
  9
$PSTYLEMODE
290
    1
  9
$EXTNAMES
290
    1
  9
$PSVPSCALE
 40
1
  9
$OLESTARTUP
290
    0
  9
$SORTENTS
280
  127
  9
$INDEXCTL
280
    0
  9
$HIDETEXT
280
    1
  9
$XCLIPFRAME
290
    0
  9
$HALOGAP
280
    0
  9
$OBSCOLOR
 70
  257
  9
$OBSLTYPE
280
    0
  9
$INTERSECTIONDISPLAY
280
    0
  9
$INTERSECTIONCOLOR
 70
  257
  9
$DIMASSOC
280
    1
  9
$PROJECTNAME
  1

  9
$CAMERADISPLAY
290
    0
  9
$LENSLENGTH
 40
50
  9
$CAMERAHEIGHT
 40
0
  9
$STEPSPERSEC
 40
2
  9
$STEPSIZE
 40
50
  9
$3DDWFPREC
 40
2
  9
$PSOLWIDTH
 40
5
  9
$PSOLHEIGHT
 40
80
  9
$LOFTANG1
 40
1.570796326794897
  9
$LOFTANG2
 40
1.570796326794897
  9
$LOFTMAG1
 40
0
  9
$LOFTMAG2
 40
0
  9
$LOFTPARAM
 70
    7
  9
$LOFTNORMALS
280
    1
  9
$LATITUDE
 40
1
  9
$LONGITUDE
 40
1
  9
$NORTHDIRECTION
 40
0
  9
$TIMEZONE
 70
-8000
  9
$LIGHTGLYPHDISPLAY
280
    1
  9
$TILEMODELIGHTSYNCH
280
    1
  9
$SOLIDHIST
280
    1
  9
$SHOWHIST
280
    1
  9
$DWFFRAME
280
    2
  9
$DGNFRAME
280
    0
  9
$REALWORLDSCALE
290
    1
  9
$INTERFERECOLOR
 62
    1
  9
$CSHADOW
280
    0
  9
$SHADOWPLANELOCATION
 40
0
  0
ENDSEC
  0
SECTION
  2
CLASSES
  0
ENDSEC
  0
SECTION
  2
TABLES
  0
TABLE
  2
VPORT
  5
8
330
0
100
AcDbSymbolTable
 70
    1
  0
VPORT
  5
31
330
2
100
AcDbSymbolTableRecord
100
AcDbViewportTableRecord
  2
*ACTIVE
 70
    0
 10
0
 20
0
 11
1
 21
1
 12
32.7934251930207
 22
25.21330559922411
 13
0
 23
0
 14
10
 24
10
 15
10
 25
10
 16
0
 26
0
 36
1
 17
0
 27
0
 37
0
 40
87.30577461223872
 41
1.881773399014778
 42
50
 43
0
 44
0
 50
0
 51
0
 71
    0
 72
  100
 73
    1
 74
    3
 75
    0
 76
    1
 77
    0
 78
    0
281
    0
 65
    1
110
0
120
0
130
0
111
1
121
0
131
0
112
0
122
1
132
0
 79
    0
146
0
348
10020
 60
    7
 61
    5
292
1
282
    1
141
0
142
0
 63
  250
421
3358443
  0
ENDTAB
  0
TABLE
  2
LTYPE
  5
5
330
0
100
AcDbSymbolTable
 70
    4
  0
LTYPE
  5
14
330
5
100
AcDbSymbolTableRecord
100
AcDbLinetypeTableRecord
  2
ByBlock
 70
    0
  3

 72
   65
 73
    0
 40
0
  0
LTYPE
  5
15
330
5
100
AcDbSymbolTableRecord
100
AcDbLinetypeTableRecord
  2
ByLayer
 70
    0
  3

 72
   65
 73
    0
 40
0
  0
LTYPE
  5
16
330
5
100
AcDbSymbolTableRecord
100
AcDbLinetypeTableRecord
  2
Continuous
 70
    0
  3
Solid line
 72
   65
 73
    0
 40
0
  0
LTYPE
  5
32
330
5
100
AcDbSymbolTableRecord
100
AcDbLinetypeTableRecord
  2
DOT
 70
    0
  3
Dot . . . . . . . . . . . . . . . . . . . . . .
 72
   65
 73
    2
 40
6.35
 49
0
 74
    0
 49
-6.35
 74
    0
  0
LTYPE
  5
33
330
5
100
AcDbSymbolTableRecord
100
AcDbLinetypeTableRecord
  2
DOTTINY
 70
    0
  3
Dot (.15x) .....................................
 72
   65
 73
    2
 40
0.9525
 49
0
 74
    0
 49
-0.9525
 74
    0
  0
LTYPE
  5
34
330
5
100
AcDbSymbolTableRecord
100
AcDbLinetypeTableRecord
  2
DOT2
 70
    0
  3
Dot (.5x) .....................................
 72
   65
 73
    2
 40
3.175
 49
0
 74
    0
 49
-3.175
 74
    0
  0
LTYPE
  5
35
330
5
100
AcDbSymbolTableRecord
100
AcDbLinetypeTableRecord
  2
DOTX2
 70
    0
  3
Dot (2x) .  .  .  .  .  .  .  .  .  .  .  .  .
 72
   65
 73
    2
 40
12.7
 49
0
 74
    0
 49
-12.7
 74
    0
  0
LTYPE
  5
36
330
5
100
AcDbSymbolTableRecord
100
AcDbLinetypeTableRecord
  2
DASHED
 70
    0
  3
Dashed _ _ _ _ _ _ _ _ _ _ _ _ _ _ _ _ _
 72
   65
 73
    2
 40
19.05
 49
12.7
 74
    0
 49
-6.35
 74
    0
  0
LTYPE
  5
37
330
5
100
AcDbSymbolTableRecord
100
AcDbLinetypeTableRecord
  2
DASHEDTINY
 70
    0
  3
Dashed (.15x) _ _ _ _ _ _ _ _ _ _ _ _ _ _ _ _ _
 72
   65
 73
    2
 40
2.8575
 49
1.905
 74
    0
 49
-0.9525
 74
    0
  0
LTYPE
  5
38
330
5
100
AcDbSymbolTableRecord
100
AcDbLinetypeTableRecord
  2
DASHED2
 70
    0
  3
Dashed (.5x) _ _ _ _ _ _ _ _ _ _ _ _ _ _ _ _ _
 72
   65
 73
    2
 40
9.524999999999999
 49
6.35
 74
    0
 49
-3.175
 74
    0
  0
LTYPE
  5
39
330
5
100
AcDbSymbolTableRecord
100
AcDbLinetypeTableRecord
  2
DASHEDX2
 70
    0
  3
Dashed (2x) ____  ____  ____  ____  ____  ___
 72
   65
 73
    2
 40
38.09999999999999
 49
25.4
 74
    0
 49
-12.7
 74
    0
  0
LTYPE
  5
3A
330
5
100
AcDbSymbolTableRecord
100
AcDbLinetypeTableRecord
  2
DASHDOT
 70
    0
  3
Dash dot __ . __ . __ . __ . __ . __ . __ . __
 72
   65
 73
    4
 40
25.4
 49
12.7
 74
    0
 49
-6.35
 74
    0
 49
0
 74
    0
 49
-6.35
 74
    0
  0
LTYPE
  5
3B
330
5
100
AcDbSymbolTableRecord
100
AcDbLinetypeTableRecord
  2
DASHDOTTINY
 70
    0
  3
Dash dot (.15x) _._._._._._._._._._._._._._._.
 72
   65
 73
    4
 40
3.81
 49
1.905
 74
    0
 49
-0.9525
 74
    0
 49
0
 74
    0
 49
-0.9525
 74
    0
  0
LTYPE
  5
3C
330
5
100
AcDbSymbolTableRecord
100
AcDbLinetypeTableRecord
  2
DASHDOT2
 70
    0
  3
Dash dot (.5x) _._._._._._._._._._._._._._._.
 72
   65
 73
    4
 40
12.7
 49
6.35
 74
    0
 49
-3.175
 74
    0
 49
0
 74
    0
 49
-3.175
 74
    0
  0
LTYPE
  5
3D
330
5
100
AcDbSymbolTableRecord
100
AcDbLinetypeTableRecord
  2
DASHDOTX2
 70
    0
  3
Dash dot (2x) ____  .  ____  .  ____  .  ___
 72
   65
 73
    4
 40
50.8
 49
25.4
 74
    0
 49
-12.7
 74
    0
 49
0
 74
    0
 49
-12.7
 74
    0
  0
LTYPE
  5
3E
330
5
100
AcDbSymbolTableRecord
100
AcDbLinetypeTableRecord
  2
DIVIDE
 70
    0
  3
Divide ____ . . ____ . . ____ . . ____ . . ____
 72
   65
 73
    6
 40
31.75
 49
12.7
 74
    0
 49
-6.35
 74
    0
 49
0
 74
    0
 49
-6.35
 74
    0
 49
0
 74
    0
 49
-6.35
 74
    0
  0
LTYPE
  5
3F
330
5
100
AcDbSymbolTableRecord
100
AcDbLinetypeTableRecord
  2
DIVIDETINY
 70
    0
  3
Divide (.15x) __..__..__..__..__..__..__..__.._
 72
   65
 73
    6
 40
4.7625
 49
1.905
 74
    0
 49
-0.9525
 74
    0
 49
0
 74
    0
 49
-0.9525
 74
    0
 49
0
 74
    0
 49
-0.9525
 74
    0
  0
LTYPE
  5
40
330
5
100
AcDbSymbolTableRecord
100
AcDbLinetypeTableRecord
  2
DIVIDE2
 70
    0
  3
Divide (.5x) __..__..__..__..__..__..__..__.._
 72
   65
 73
    6
 40
15.875
 49
6.35
 74
    0
 49
-3.175
 74
    0
 49
0
 74
    0
 49
-3.175
 74
    0
 49
0
 74
    0
 49
-3.175
 74
    0
  0
LTYPE
  5
41
330
5
100
AcDbSymbolTableRecord
100
AcDbLinetypeTableRecord
  2
DIVIDEX2
 70
    0
  3
Divide (2x) ________  .  .  ________  .  .  _
 72
   65
 73
    6
 40
63.5
 49
25.4
 74
    0
 49
-12.7
 74
    0
 49
0
 74
    0
 49
-12.7
 74
    0
 49
0
 74
    0
 49
-12.7
 74
    0
  0
LTYPE
  5
42
330
5
100
AcDbSymbolTableRecord
100
AcDbLinetypeTableRecord
  2
BORDER
 70
    0
  3
Border __ __ . __ __ . __ __ . __ __ . __ __ .
 72
   65
 73
    6
 40
44.45
 49
12.7
 74
    0
 49
-6.35
 74
    0
 49
12.7
 74
    0
 49
-6.35
 74
    0
 49
0
 74
    0
 49
-6.35
 74
    0
  0
LTYPE
  5
43
330
5
100
AcDbSymbolTableRecord
100
AcDbLinetypeTableRecord
  2
BORDERTINY
 70
    0
  3
Border (.15x) __.__.__.__.__.__.__.__.__.__.__.
 72
   65
 73
    6
 40
6.6675
 49
1.905
 74
    0
 49
-0.9525
 74
    0
 49
1.905
 74
    0
 49
-0.9525
 74
    0
 49
0
 74
    0
 49
-0.9525
 74
    0
  0
LTYPE
  5
44
330
5
100
AcDbSymbolTableRecord
100
AcDbLinetypeTableRecord
  2
BORDER2
 70
    0
  3
Border (.5x) __.__.__.__.__.__.__.__.__.__.__.
 72
   65
 73
    6
 40
22.225
 49
6.35
 74
    0
 49
-3.175
 74
    0
 49
6.35
 74
    0
 49
-3.175
 74
    0
 49
0
 74
    0
 49
-3.175
 74
    0
  0
LTYPE
  5
45
330
5
100
AcDbSymbolTableRecord
100
AcDbLinetypeTableRecord
  2
BORDERX2
 70
    0
  3
Border (2x) ____  ____  .  ____  ____  .  ___
 72
   65
 73
    6
 40
88.89999999999999
 49
25.4
 74
    0
 49
-12.7
 74
    0
 49
25.4
 74
    0
 49
-12.7
 74
    0
 49
0
 74
    0
 49
-12.7
 74
    0
  0
LTYPE
  5
46
330
5
100
AcDbSymbolTableRecord
100
AcDbLinetypeTableRecord
  2
CENTER
 70
    0
  3
Center ____ _ ____ _ ____ _ ____ _ ____ _ ____
 72
   65
 73
    4
 40
50.8
 49
31.75
 74
    0
 49
-6.35
 74
    0
 49
6.35
 74
    0
 49
-6.35
 74
    0
  0
LTYPE
  5
47
330
5
100
AcDbSymbolTableRecord
100
AcDbLinetypeTableRecord
  2
CENTERTINY
 70
    0
  3
Center (.15x) ___ _ ___ _ ___ _ ___ _ ___ _ ___
 72
   65
 73
    4
 40
7.62
 49
4.7625
 74
    0
 49
-0.9525
 74
    0
 49
0.9525
 74
    0
 49
-0.9525
 74
    0
  0
LTYPE
  5
48
330
5
100
AcDbSymbolTableRecord
100
AcDbLinetypeTableRecord
  2
CENTER2
 70
    0
  3
Center (.5x) ___ _ ___ _ ___ _ ___ _ ___ _ ___
 72
   65
 73
    4
 40
28.575
 49
19.05
 74
    0
 49
-3.175
 74
    0
 49
3.175
 74
    0
 49
-3.175
 74
    0
  0
LTYPE
  5
49
330
5
100
AcDbSymbolTableRecord
100
AcDbLinetypeTableRecord
  2
CENTERX2
 70
    0
  3
Center (2x) ________  __  ________  __  _____
 72
   65
 73
    4
 40
101.6
 49
63.5
 74
    0
 49
-12.7
 74
    0
 49
12.7
 74
    0
 49
-12.7
 74
    0
  0
ENDTAB
  0
TABLE
  2
LAYER
  5
2
330
0
100
AcDbSymbolTable
 70
    1
  0
LAYER
  5
10
330
2
100
AcDbSymbolTableRecord
100
AcDbLayerTableRecord
  2
0
 70
    0
 62
    7
  6
CONTINUOUS
370
    0
390
F
  0
LAYER
  5
4A
330
2
100
AcDbSymbolTableRecord
100
AcDbLayerTableRecord
  2
cover-mounts
 70
    0
 62
   96
420
32768
  6
CONTINUOUS
370
    0
390
F
  0
LAYER
  5
4B
330
2
100
AcDbSymbolTableRecord
100
AcDbLayerTableRecord
  2
dim
 70
    0
 62
    6
  6
CONTINUOUS
370
    0
390
F
  0
LAYER
  5
4C
330
2
100
AcDbSymbolTableRecord
100
AcDbLayerTableRecord
  2
holders
 70
    0
 62
    2
  6
CONTINUOUS
370
    0
390
F
  0
LAYER
  5
4D
330
2
100
AcDbSymbolTableRecord
100
AcDbLayerTableRecord
  2
not-there
 70
    1
 62
    3
  6
CONTINUOUS
370
    0
390
F
  0
ENDTAB
  0
TABLE
  2
STYLE
  5
3
330
0
100
AcDbSymbolTable
 70
    3
  0
STYLE
  5
4E
330
2
100
AcDbSymbolTableRecord
100
AcDbTextStyleTableRecord
  2
Standard
 70
    0
 40
0
 41
1
 50
0
 71
    0
 42
1
  3
txt
  4

  0
ENDTAB
  0
TABLE
  2
VIEW
  5
6
330
0
100
AcDbSymbolTable
 70
    0
  0
ENDTAB
  0
TABLE
  2
UCS
  5
7
330
0
100
AcDbSymbolTable
 70
    0
  0
ENDTAB
  0
TABLE
  2
APPID
  5
9
330
0
100
AcDbSymbolTable
 70
    1
  0
APPID
  5
12
330
9
100
AcDbSymbolTableRecord
100
AcDbRegAppTableRecord
  2
ACAD
 70
    0
  0
APPID
  5
4F
330
9
100
AcDbSymbolTableRecord
100
AcDbRegAppTableRecord
  2
LibreCad
 70
    0
  0
ENDTAB
  0
TABLE
  2
DIMSTYLE
  5
A
330
0
100
AcDbSymbolTable
 70
    1
100
AcDbDimStyleTable
 71
    1
  0
DIMSTYLE
105
50
330
A
100
AcDbSymbolTableRecord
100
AcDbDimStyleTableRecord
  2
Standard
 70
    0
 40
1
 41
2.5
 42
0.625
 43
0.38
 44
1.25
 45
0
 46
0
 47
0
 48
0
 49
1
140
2.5
141
0.09
142
0
143
25.4
144
1
145
0
146
1
147
0.625
148
0
 71
    0
 72
    0
 73
    0
 74
    1
 75
    0
 76
    0
 77
    0
 78
    8
 79
    0
170
    0
171
    2
172
    0
173
    0
174
    0
175
    0
176
    0
177
    0
178
    0
179
    0
271
    2
272
    4
273
    2
274
    2
275
    0
276
    0
277
    2
278
   44
279
    0
280
    0
281
    0
282
    0
283
    1
284
    0
285
    0
286
    0
288
    0
289
    3
340
STANDARD
341

371
   -2
372
   -2
  0
ENDTAB
  0
TABLE
  2
BLOCK_RECORD
  5
1
330
0
100
AcDbSymbolTable
 70
    2
  0
BLOCK_RECORD
  5
1F
330
1
100
AcDbSymbolTableRecord
100
AcDbBlockTableRecord
  2
*Model_Space
 70
    0
280
    1
281
    0
  0
BLOCK_RECORD
  5
1E
330
1
100
AcDbSymbolTableRecord
100
AcDbBlockTableRecord
  2
*Paper_Space
 70
    0
280
    1
281
    0
  0
BLOCK_RECORD
  5
51
330
1
100
AcDbSymbolTableRecord
100
AcDbBlockTableRecord
  2
*D17
 70
    0
280
    1
281
    0
  0
BLOCK_RECORD
  5
54
330
1
100
AcDbSymbolTableRecord
100
AcDbBlockTableRecord
  2
*D22
 70
    0
280
    1
281
    0
  0
BLOCK_RECORD
  5
57
330
1
100
AcDbSymbolTableRecord
100
AcDbBlockTableRecord
  2
*D19
 70
    0
280
    1
281
    0
  0
BLOCK_RECORD
  5
5A
330
1
100
AcDbSymbolTableRecord
100
AcDbBlockTableRecord
  2
*D11
 70
    0
280
    1
281
    0
  0
BLOCK_RECORD
  5
5D
330
1
100
AcDbSymbolTableRecord
100
AcDbBlockTableRecord
  2
*D1
 70
    0
280
    1
281
    0
  0
BLOCK_RECORD
  5
60
330
1
100
AcDbSymbolTableRecord
100
AcDbBlockTableRecord
  2
*D23
 70
    0
280
    1
281
    0
  0
BLOCK_RECORD
  5
63
330
1
100
AcDbSymbolTableRecord
100
AcDbBlockTableRecord
  2
*D6
 70
    0
280
    1
281
    0
  0
BLOCK_RECORD
  5
66
330
1
100
AcDbSymbolTableRecord
100
AcDbBlockTableRecord
  2
*D12
 70
    0
280
    1
281
    0
  0
BLOCK_RECORD
  5
69
330
1
100
AcDbSymbolTableRecord
100
AcDbBlockTableRecord
  2
*D15
 70
    0
280
    1
281
    0
  0
BLOCK_RECORD
  5
6C
330
1
100
AcDbSymbolTableRecord
100
AcDbBlockTableRecord
  2
*D20
 70
    0
280
    1
281
    0
  0
BLOCK_RECORD
  5
6F
330
1
100
AcDbSymbolTableRecord
100
AcDbBlockTableRecord
  2
*D16
 70
    0
280
    1
281
    0
  0
BLOCK_RECORD
  5
72
330
1
100
AcDbSymbolTableRecord
100
AcDbBlockTableRecord
  2
*D4
 70
    0
280
    1
281
    0
  0
BLOCK_RECORD
  5
75
330
1
100
AcDbSymbolTableRecord
100
AcDbBlockTableRecord
  2
*D13
 70
    0
280
    1
281
    0
  0
BLOCK_RECORD
  5
78
330
1
100
AcDbSymbolTableRecord
100
AcDbBlockTableRecord
  2
*D5
 70
    0
280
    1
281
    0
  0
BLOCK_RECORD
  5
7B
330
1
100
AcDbSymbolTableRecord
100
AcDbBlockTableRecord
  2
*D2
 70
    0
280
    1
281
    0
  0
BLOCK_RECORD
  5
7E
330
1
100
AcDbSymbolTableRecord
100
AcDbBlockTableRecord
  2
*D9
 70
    0
280
    1
281
    0
  0
BLOCK_RECORD
  5
81
330
1
100
AcDbSymbolTableRecord
100
AcDbBlockTableRecord
  2
*D3
 70
    0
280
    1
281
    0
  0
BLOCK_RECORD
  5
84
330
1
100
AcDbSymbolTableRecord
100
AcDbBlockTableRecord
  2
*D10
 70
    0
280
    1
281
    0
  0
BLOCK_RECORD
  5
87
330
1
100
AcDbSymbolTableRecord
100
AcDbBlockTableRecord
  2
*D18
 70
    0
280
    1
281
    0
  0
BLOCK_RECORD
  5
8A
330
1
100
AcDbSymbolTableRecord
100
AcDbBlockTableRecord
  2
*D21
 70
    0
280
    1
281
    0
  0
BLOCK_RECORD
  5
8D
330
1
100
AcDbSymbolTableRecord
100
AcDbBlockTableRecord
  2
*D14
 70
    0
280
    1
281
    0
  0
BLOCK_RECORD
  5
90
330
1
100
AcDbSymbolTableRecord
100
AcDbBlockTableRecord
  2
*D8
 70
    0
280
    1
281
    0
  0
BLOCK_RECORD
  5
93
330
1
100
AcDbSymbolTableRecord
100
AcDbBlockTableRecord
  2
*D7
 70
    0
280
    1
281
    0
  0
ENDTAB
  0
ENDSEC
  0
SECTION
  2
BLOCKS
  0
BLOCK
  5
20
330
1F
100
AcDbEntity
  8
0
100
AcDbBlockBegin
  2
*Model_Space
 70
    0
 10
0
 20
0
 30
0
  3
*Model_Space
  1

  0
ENDBLK
  5
21
330
1F
100
AcDbEntity
  8
0
100
AcDbBlockEnd
  0
BLOCK
  5
1C
330
1B
100
AcDbEntity
  8
0
100
AcDbBlockBegin
  2
*Paper_Space
 70
    0
 10
0
 20
0
 30
0
  3
*Paper_Space
  1

  0
ENDBLK
  5
1D
330
1F
100
AcDbEntity
  8
0
100
AcDbBlockEnd
  0
BLOCK
  5
52
330
51
100
AcDbEntity
  8
0
100
AcDbBlockBegin
  2
*D17
 70
    1
 10
0
 20
0
  3
*D17
  1

  0
LINE
  5
96
100
AcDbEntity
  8
dim
  6
ByBlock
 62
    0
370
   -2
100
AcDbLine
 10
14
 20
21.75000116707765
 11
14
 21
37.35000118076504
  0
MTEXT
  5
97
100
AcDbEntity
  8
dim
  6
CONTINUOUS
 62
    0
370
   -2
100
AcDbMText
 10
12.125
 20
29.55000117392134
 30
0
 40
2.5
 41
5.416666666666977
 71
    5
 72
    1
  1
15,6
  7
STANDARD
210
0
220
0
230
1
 50
90
 73
    2
 44
1
  0
SOLID
  5
98
100
AcDbEntity
  8
dim
  6
ByBlock
 62
    0
370
   -2
100
AcDbTrace
 10
14
 20
21.75000116707765
 30
0
 11
13.58371534222716
 21
24.25000116707765
 31
0
 12
14.41628465777284
 22
24.25000116707765
 32
0
 13
14.41628465777284
 23
24.25000116707765
 33
0
  0
SOLID
  5
99
100
AcDbEntity
  8
dim
  6
ByBlock
 62
    0
370
   -2
100
AcDbTrace
 10
14
 20
37.35000118076504
 30
0
 11
14.41628465777284
 21
34.85000118076504
 31
0
 12
13.58371534222716
 22
34.85000118076504
 32
0
 13
13.58371534222716
 23
34.85000118076504
 33
0
  0
LINE
  5
9A
100
AcDbEntity
  8
dim
  6
ByBlock
 62
    0
370
   -2
100
AcDbLine
 10
-2.075000130934727
 20
21.75000116707765
 11
15.25
 21
21.75000116707765
  0
LINE
  5
9B
100
AcDbEntity
  8
dim
  6
ByBlock
 62
    0
370
   -2
100
AcDbLine
 10
-2.075000130934724
 20
37.35000118076504
 11
15.25
 21
37.35000118076504
  0
ENDBLK
  5
53
330
51
100
AcDbEntity
  8
0
100
AcDbBlockEnd
  0
BLOCK
  5
55
330
54
100
AcDbEntity
  8
0
100
AcDbBlockBegin
  2
*D22
 70
    1
 10
0
 20
0
  3
*D22
  1

  0
LINE
  5
9C
100
AcDbEntity
  8
dim
  6
ByBlock
 62
    0
370
   -2
100
AcDbLine
 10
3.552713678800501e-014
 20
49.6231364430985
 11
-58.12499986349217
 21
49.6231364430985
  0
MTEXT
  5
9D
100
AcDbEntity
  8
dim
  6
CONTINUOUS
 62
    0
370
   -2
100
AcDbMText
 10
-29.06249993174607
 20
51.4981364430985
 30
0
 40
2.5
 41
7.361111111111266
 71
    5
 72
    1
  1
58,12
  7
STANDARD
210
0
220
0
230
1
 50
0
 73
    2
 44
1
  0
SOLID
  5
9E
100
AcDbEntity
  8
dim
  6
ByBlock
 62
    0
370
   -2
100
AcDbTrace
 10
3.552713678800501e-014
 20
49.6231364430985
 30
0
 11
-2.499999999999964
 21
49.20685178532566
 31
0
 12
-2.499999999999964
 22
50.03942110087134
 32
0
 13
-2.499999999999964
 23
50.03942110087134
 33
0
  0
SOLID
  5
9F
100
AcDbEntity
  8
dim
  6
ByBlock
 62
    0
370
   -2
100
AcDbTrace
 10
-58.12499986349217
 20
49.6231364430985
 30
0
 11
-55.62499986349217
 21
50.03942110087134
 31
0
 12
-55.62499986349217
 22
49.20685178532566
 32
0
 13
-55.62499986349217
 23
49.20685178532566
 33
0
  0
LINE
  5
A0
100
AcDbEntity
  8
dim
  6
ByBlock
 62
    0
370
   -2
100
AcDbLine
 10
2.82101781984203e-014
 20
38.67500067131123
 11
3.643634195358778e-014
 21
50.8731364430985
  0
LINE
  5
A1
100
AcDbEntity
  8
dim
  6
ByBlock
 62
    0
370
   -2
100
AcDbLine
 10
-58.12499986349217
 20
37.18257682331815
 11
-58.12499986349217
 21
50.8731364430985
  0
ENDBLK
  5
56
330
54
100
AcDbEntity
  8
0
100
AcDbBlockEnd
  0
BLOCK
  5
58
330
57
100
AcDbEntity
  8
0
100
AcDbBlockBegin
  2
*D19
 70
    1
 10
0
 20
0
  3
*D19
  1

  0
LINE
  5
A2
100
AcDbEntity
  8
dim
  6
ByBlock
 62
    0
370
   -2
100
AcDbLine
 10
40.74372591717042
 20
7.105427357601002e-015
 11
40.74372591717042
 21
40.05000067131123
  0
MTEXT
  5
A3
100
AcDbEntity
  8
dim
  6
CONTINUOUS
 62
    0
370
   -2
100
AcDbMText
 10
38.86872591717042
 20
20.02500033565562
 30
0
 40
2.5
 41
8.194444444444599
 71
    5
 72
    1
  1
40,05
  7
STANDARD
210
0
220
0
230
1
 50
90
 73
    2
 44
1
  0
SOLID
  5
A4
100
AcDbEntity
  8
dim
  6
ByBlock
 62
    0
370
   -2
100
AcDbTrace
 10
40.74372591717042
 20
7.105427357601002e-015
 30
0
 11
40.32744125939757
 21
2.500000000000007
 31
0
 12
41.16001057494326
 22
2.500000000000007
 32
0
 13
41.16001057494326
 23
2.500000000000007
 33
0
  0
SOLID
  5
A5
100
AcDbEntity
  8
dim
  6
ByBlock
 62
    0
370
   -2
100
AcDbTrace
 10
40.74372591717042
 20
40.05000067131123
 30
0
 11
41.16001057494326
 21
37.55000067131123
 31
0
 12
40.32744125939757
 22
37.55000067131123
 32
0
 13
40.32744125939757
 23
37.55000067131123
 33
0
  0
LINE
  5
A6
100
AcDbEntity
  8
dim
  6
ByBlock
 62
    0
370
   -2
100
AcDbLine
 10
-0.3749999999999998
 20
-1.110223024625157e-016
 11
41.99372591717042
 21
7.105427357601002e-015
  0
LINE
  5
A7
100
AcDbEntity
  8
dim
  6
ByBlock
 62
    0
370
   -2
100
AcDbLine
 10
-1.374999999999972
 20
40.05000067131123
 11
41.99372591717042
 21
40.05000067131123
  0
ENDBLK
  5
59
330
57
100
AcDbEntity
  8
0
100
AcDbBlockEnd
  0
BLOCK
  5
5B
330
5A
100
AcDbEntity
  8
0
100
AcDbBlockBegin
  2
*D11
 70
    1
 10
0
 20
0
  3
*D11
  1

  0
LINE
  5
A8
100
AcDbEntity
  8
dim
  6
ByBlock
 62
    0
370
   -2
100
AcDbLine
 10
0
 20
-40
 11
-99.99999999999997
 21
-40
  0
MTEXT
  5
A9
100
AcDbEntity
  8
dim
  6
CONTINUOUS
 62
    0
370
   -2
100
AcDbMText
 10
-49.99999999999999
 20
-38.125
 30
0
 40
2.5
 41
4.444444444444445
 71
    5
 72
    1
  1
100
  7
STANDARD
210
0
220
0
230
1
 50
0
 73
    2
 44
1
  0
SOLID
  5
AA
100
AcDbEntity
  8
dim
  6
ByBlock
 62
    0
370
   -2
100
AcDbTrace
 10
0
 20
-40
 30
0
 11
-2.5
 21
-40.41628465777284
 31
0
 12
-2.5
 22
-39.58371534222716
 32
0
 13
-2.5
 23
-39.58371534222716
 33
0
  0
SOLID
  5
AB
100
AcDbEntity
  8
dim
  6
ByBlock
 62
    0
370
   -2
100
AcDbTrace
 10
-99.99999999999997
 20
-40
 30
0
 11
-97.49999999999997
 21
-39.58371534222716
 31
0
 12
-97.49999999999997
 22
-40.41628465777284
 32
0
 13
-97.49999999999997
 23
-40.41628465777284
 33
0
  0
LINE
  5
AC
100
AcDbEntity
  8
dim
  6
ByBlock
 62
    0
370
   -2
100
AcDbLine
 10
-1.148068456708479e-016
 20
-0.625
 11
-2.296136913416957e-016
 21
-41.25
  0
LINE
  5
AD
100
AcDbEntity
  8
dim
  6
ByBlock
 62
    0
370
   -2
100
AcDbLine
 10
-99.99999999999997
 20
-0.6249993286886594
 11
-99.99999999999997
 21
-41.25
  0
ENDBLK
  5
5C
330
5A
100
AcDbEntity
  8
0
100
AcDbBlockEnd
  0
BLOCK
  5
5E
330
5D
100
AcDbEntity
  8
0
100
AcDbBlockBegin
  2
*D1
 70
    1
 10
0
 20
0
  3
*D1
  1

  0
SOLID
  5
AE
100
AcDbEntity
  8
dim
  6
ByBlock
 62
    0
370
   -2
100
AcDbTrace
 10
-115.5141360335015
 20
-12.62186856957402
 30
0
 11
-113.8375835551836
 21
-10.72122007399597
 31
0
 12
-113.312154503444
 22
-11.36704975493072
 32
0
 13
-113.312154503444
 23
-11.36704975493072
 33
0
  0
LINE
  5
AF
100
AcDbEntity
  8
dim
  6
ByBlock
 62
    0
370
   -2
100
AcDbLine
 10
-99.99999999999997
 20
6.713113406275895e-007
 11
-115.5141360335015
 21
-12.62186856957401
  0
MTEXT
  5
B0
100
AcDbEntity
  8
dim
  6
CONTINUOUS
 62
    0
370
   -2
100
AcDbMText
 10
-108.9403682580838
 20
-4.856483695990563
 30
0
 40
2.5
 41
3.055555555555556
 71
    5
 72
    1
  1
20
  7
STANDARD
210
0
220
0
230
1
 50
39.13084233485768
 73
    2
 44
1
  0
ENDBLK
  5
5F
330
5D
100
AcDbEntity
  8
0
100
AcDbBlockEnd
  0
BLOCK
  5
61
330
60
100
AcDbEntity
  8
0
100
AcDbBlockBegin
  2
*D23
 70
    1
 10
0
 20
0
  3
*D23
  1

  0
LINE
  5
B1
100
AcDbEntity
  8
cover-mounts
  6
ByBlock
 62
    0
370
   -2
100
AcDbLine
 10
24.43160585277965
 20
20.02500117392134
 11
24.43160585277965
 21
-1.991603414378882e-015
  0
MTEXT
  5
B2
100
AcDbEntity
  8
cover-mounts
  6
CONTINUOUS
 62
    0
370
   -2
100
AcDbMText
 10
22.55660585277965
 20
10.01250058696067
 30
0
 40
2.5
 41
7.916666666666822
 71
    5
 72
    1
  1
20,03
  7
STANDARD
210
0
220
0
230
1
 50
90
 73
    2
 44
1
  0
SOLID
  5
B3
100
AcDbEntity
  8
cover-mounts
  6
ByBlock
 62
    0
370
   -2
100
AcDbTrace
 10
24.43160585277965
 20
20.02500117392134
 30
0
 11
24.84789051055249
 21
17.52500117392134
 31
0
 12
24.01532119500681
 22
17.52500117392134
 32
0
 13
24.01532119500681
 23
17.52500117392134
 33
0
  0
SOLID
  5
B4
100
AcDbEntity
  8
cover-mounts
  6
ByBlock
 62
    0
370
   -2
100
AcDbTrace
 10
24.43160585277965
 20
-1.991603414378882e-015
 30
0
 11
24.01532119500681
 21
2.499999999999998
 31
0
 12
24.84789051055249
 22
2.499999999999998
 32
0
 13
24.84789051055249
 23
2.499999999999998
 33
0
  0
LINE
  5
B5
100
AcDbEntity
  8
cover-mounts
  6
ByBlock
 62
    0
370
   -2
100
AcDbLine
 10
-2.774999999999967
 20
20.02500117392134
 11
25.68160585277965
 21
20.02500117392134
  0
LINE
  5
B6
100
AcDbEntity
  8
cover-mounts
  6
ByBlock
 62
    0
370
   -2
100
AcDbLine
 10
-0.3749999913438229
 20
-1.845791352532778e-016
 11
25.68160585277965
 21
-1.991603414378882e-015
  0
ENDBLK
  5
62
330
60
100
AcDbEntity
  8
0
100
AcDbBlockEnd
  0
BLOCK
  5
64
330
63
100
AcDbEntity
  8
0
100
AcDbBlockBegin
  2
*D6
 70
    1
 10
0
 20
0
  3
*D6
  1

  0
LINE
  5
B7
100
AcDbEntity
  8
dim
  6
ByBlock
 62
    0
370
   -2
100
AcDbLine
 10
14.73636137641991
 20
0
 11
14.73636137641991
 21
10.50000067131126
  0
MTEXT
  5
B8
100
AcDbEntity
  8
dim
  6
CONTINUOUS
 62
    0
370
   -2
100
AcDbMText
 10
12.86136137641991
 20
5.250000335655628
 30
0
 40
2.5
 41
5.416666666666822
 71
    5
 72
    1
  1
10,5
  7
STANDARD
210
0
220
0
230
1
 50
90
 73
    2
 44
1
  0
SOLID
  5
B9
100
AcDbEntity
  8
dim
  6
ByBlock
 62
    0
370
   -2
100
AcDbTrace
 10
14.73636137641991
 20
0
 30
0
 11
14.32007671864707
 21
2.5
 31
0
 12
15.15264603419275
 22
2.5
 32
0
 13
15.15264603419275
 23
2.5
 33
0
  0
SOLID
  5
BA
100
AcDbEntity
  8
dim
  6
ByBlock
 62
    0
370
   -2
100
AcDbTrace
 10
14.73636137641991
 20
10.50000067131126
 30
0
 11
15.15264603419275
 21
8.000000671311259
 31
0
 12
14.32007671864707
 22
8.000000671311259
 32
0
 13
14.32007671864707
 23
8.000000671311259
 33
0
  0
LINE
  5
BB
100
AcDbEntity
  8
dim
  6
ByBlock
 62
    0
370
   -2
100
AcDbLine
 10
-0.375
 20
-1.110223024625157e-016
 11
15.98636137641991
 21
0
  0
LINE
  5
BC
100
AcDbEntity
  8
dim
  6
ByBlock
 62
    0
370
   -2
100
AcDbLine
 10
-9.87499999999995
 20
10.50000067131126
 11
15.98636137641991
 21
10.50000067131126
  0
ENDBLK
  5
65
330
63
100
AcDbEntity
  8
0
100
AcDbBlockEnd
  0
BLOCK
  5
67
330
66
100
AcDbEntity
  8
0
100
AcDbBlockBegin
  2
*D12
 70
    1
 10
0
 20
0
  3
*D12
  1

  0
LINE
  5
BD
100
AcDbEntity
  8
dim
  6
ByBlock
 62
    0
370
   -2
100
AcDbLine
 10
-26
 20
-3.49999817442881
 11
-26
 21
9.259938355330299
  0
MTEXT
  5
BE
100
AcDbEntity
  8
dim
  6
CONTINUOUS
 62
    0
370
   -2
100
AcDbMText
 10
-27.875
 20
7.871049466441488
 30
0
 40
2.5
 41
5.972222222222378
 71
    5
 72
    1
  1
2,76
  7
STANDARD
210
0
220
0
230
1
 50
90
 73
    2
 44
1
  0
SOLID
  5
BF
100
AcDbEntity
  8
dim
  6
ByBlock
 62
    0
370
   -2
100
AcDbTrace
 10
-26
 20
1.50000182557119
 30
0
 11
-25.58371534222716
 21
-0.9999981744288103
 31
0
 12
-26.41628465777284
 22
-0.9999981744288102
 32
0
 13
-26.41628465777284
 23
-0.9999981744288102
 33
0
  0
SOLID
  5
C0
100
AcDbEntity
  8
dim
  6
ByBlock
 62
    0
370
   -2
100
AcDbTrace
 10
-26
 20
4.259938355330299
 30
0
 11
-26.41628465777284
 21
6.759938355330299
 31
0
 12
-25.58371534222716
 22
6.759938355330299
 32
0
 13
-25.58371534222716
 23
6.759938355330299
 33
0
  0
LINE
  5
C1
100
AcDbEntity
  8
dim
  6
ByBlock
 62
    0
370
   -2
100
AcDbLine
 10
-23.72499998631248
 20
1.500001825571189
 11
-27.25
 21
1.50000182557119
  0
LINE
  5
C2
100
AcDbEntity
  8
dim
  6
ByBlock
 62
    0
370
   -2
100
AcDbLine
 10
-22.72499998631247
 20
4.259938355330299
 11
-27.25
 21
4.259938355330299
  0
ENDBLK
  5
68
330
66
100
AcDbEntity
  8
0
100
AcDbBlockEnd
  0
BLOCK
  5
6A
330
69
100
AcDbEntity
  8
0
100
AcDbBlockBegin
  2
*D15
 70
    1
 10
0
 20
0
  3
*D15
  1

  0
LINE
  5
C3
100
AcDbEntity
  8
0
  6
ByBlock
 62
    0
370
   -2
100
AcDbLine
 10
52
 20
14.57
 11
52
 21
28.57
  0
MTEXT
  5
C4
100
AcDbEntity
  8
0
  6
CONTINUOUS
 62
    0
370
   -2
100
AcDbMText
 10
50.125
 20
21.57
 30
0
 40
2.5
 41
2.777777777777778
 71
    5
 72
    1
  1
14
  7
STANDARD
210
0
220
0
230
1
 50
90
 73
    2
 44
1
  0
SOLID
  5
C5
100
AcDbEntity
  8
0
  6
ByBlock
 62
    0
370
   -2
100
AcDbTrace
 10
52
 20
14.57
 30
0
 11
51.58371534222716
 21
17.07
 31
0
 12
52.41628465777284
 22
17.07
 32
0
 13
52.41628465777284
 23
17.07
 33
0
  0
SOLID
  5
C6
100
AcDbEntity
  8
0
  6
ByBlock
 62
    0
370
   -2
100
AcDbTrace
 10
52
 20
28.57
 30
0
 11
52.41628465777284
 21
26.07
 31
0
 12
51.58371534222716
 22
26.07
 32
0
 13
51.58371534222716
 23
26.07
 33
0
  0
LINE
  5
C7
100
AcDbEntity
  8
0
  6
ByBlock
 62
    0
370
   -2
100
AcDbLine
 10
58.975
 20
14.57
 11
50.75
 21
14.57
  0
LINE
  5
C8
100
AcDbEntity
  8
0
  6
ByBlock
 62
    0
370
   -2
100
AcDbLine
 10
58.975
 20
28.57
 11
50.75
 21
28.57
  0
ENDBLK
  5
6B
330
69
100
AcDbEntity
  8
0
100
AcDbBlockEnd
  0
BLOCK
  5
6D
330
6C
100
AcDbEntity
  8
0
100
AcDbBlockBegin
  2
*D20
 70
    1
 10
0
 20
0
  3
*D20
  1

  0
LINE
  5
C9
100
AcDbEntity
  8
dim
  6
ByBlock
 62
    0
370
   -2
100
AcDbLine
 10
35.83980894447274
 20
38.65000067131123
 11
35.83980894447274
 21
1.400000007476579
  0
MTEXT
  5
CA
100
AcDbEntity
  8
dim
  6
CONTINUOUS
 62
    0
370
   -2
100
AcDbMText
 10
33.96480894447274
 20
20.02500033939391
 30
0
 40
2.5
 41
7.916666666666977
 71
    5
 72
    1
  1
37,25
  7
STANDARD
210
0
220
0
230
1
 50
90
 73
    2
 44
1
  0
SOLID
  5
CB
100
AcDbEntity
  8
dim
  6
ByBlock
 62
    0
370
   -2
100
AcDbTrace
 10
35.83980894447274
 20
38.65000067131123
 30
0
 11
36.25609360224558
 21
36.15000067131123
 31
0
 12
35.42352428669989
 22
36.15000067131123
 32
0
 13
35.42352428669989
 23
36.15000067131123
 33
0
  0
SOLID
  5
CC
100
AcDbEntity
  8
dim
  6
ByBlock
 62
    0
370
   -2
100
AcDbTrace
 10
35.83980894447274
 20
1.400000007476579
 30
0
 11
35.42352428669989
 21
3.900000007476579
 31
0
 12
36.25609360224558
 22
3.900000007476579
 32
0
 13
36.25609360224558
 23
3.900000007476579
 33
0
  0
LINE
  5
CD
100
AcDbEntity
  8
dim
  6
ByBlock
 62
    0
370
   -2
100
AcDbLine
 10
-1.774999999999972
 20
38.65000067131123
 11
37.08980894447274
 21
38.65000067131123
  0
LINE
  5
CE
100
AcDbEntity
  8
dim
  6
ByBlock
 62
    0
370
   -2
100
AcDbLine
 10
-1.775000052698389
 20
1.400000007476581
 11
37.08980894447274
 21
1.400000007476579
  0
ENDBLK
  5
6E
330
6C
100
AcDbEntity
  8
0
100
AcDbBlockEnd
  0
BLOCK
  5
70
330
6F
100
AcDbEntity
  8
0
100
AcDbBlockBegin
  2
*D16
 70
    1
 10
0
 20
0
  3
*D16
  1

  0
LINE
  5
CF
100
AcDbEntity
  8
dim
  6
ByBlock
 62
    0
370
   -2
100
AcDbLine
 10
-49
 20
27
 11
-49
 21
3.481659405224491e-015
  0
MTEXT
  5
D0
100
AcDbEntity
  8
dim
  6
CONTINUOUS
 62
    0
370
   -2
100
AcDbMText
 10
-50.875
 20
13.5
 30
0
 40
2.5
 41
3.055555555555556
 71
    5
 72
    1
  1
27
  7
STANDARD
210
0
220
0
230
1
 50
90
 73
    2
 44
1
  0
SOLID
  5
D1
100
AcDbEntity
  8
dim
  6
ByBlock
 62
    0
370
   -2
100
AcDbTrace
 10
-49
 20
27
 30
0
 11
-48.58371534222716
 21
24.5
 31
0
 12
-49.41628465777284
 22
24.5
 32
0
 13
-49.41628465777284
 23
24.5
 33
0
  0
SOLID
  5
D2
100
AcDbEntity
  8
dim
  6
ByBlock
 62
    0
370
   -2
100
AcDbTrace
 10
-49
 20
3.481659405224491e-015
 30
0
 11
-49.41628465777284
 21
2.500000000000004
 31
0
 12
-48.58371534222716
 22
2.500000000000004
 32
0
 13
-48.58371534222716
 23
2.500000000000004
 33
0
  0
LINE
  5
D3
100
AcDbEntity
  8
dim
  6
ByBlock
 62
    0
370
   -2
100
AcDbLine
 10
-89.375
 20
27
 11
-47.75
 21
27
  0
LINE
  5
D4
100
AcDbEntity
  8
dim
  6
ByBlock
 62
    0
370
   -2
100
AcDbLine
 10
-0.625
 20
7.653789711389858e-017
 11
-50.25
 21
3.634735199452288e-015
  0
ENDBLK
  5
71
330
6F
100
AcDbEntity
  8
0
100
AcDbBlockEnd
  0
BLOCK
  5
73
330
72
100
AcDbEntity
  8
0
100
AcDbBlockBegin
  2
*D4
 70
    1
 10
0
 20
0
  3
*D4
  1

  0
LINE
  5
D5
100
AcDbEntity
  8
dim
  6
ByBlock
 62
    0
370
   -2
100
AcDbLine
 10
-105.5170031366904
 20
40.49999926363253
 11
-105.5170031366904
 21
25.50386113818963
  0
MTEXT
  5
D6
100
AcDbEntity
  8
dim
  6
CONTINUOUS
 62
    0
370
   -2
100
AcDbMText
 10
-107.3920031366904
 20
33.00193020091108
 30
0
 40
2.5
 41
2.500000000000155
 71
    5
 72
    1
  1
15
  7
STANDARD
210
0
220
0
230
1
 50
90
 73
    2
 44
1
  0
SOLID
  5
D7
100
AcDbEntity
  8
dim
  6
ByBlock
 62
    0
370
   -2
100
AcDbTrace
 10
-105.5170031366904
 20
40.49999926363253
 30
0
 11
-105.1007184789176
 21
37.99999926363253
 31
0
 12
-105.9332877944632
 22
37.99999926363253
 32
0
 13
-105.9332877944632
 23
37.99999926363253
 33
0
  0
SOLID
  5
D8
100
AcDbEntity
  8
dim
  6
ByBlock
 62
    0
370
   -2
100
AcDbTrace
 10
-105.5170031366904
 20
25.50386113818963
 30
0
 11
-105.9332877944632
 21
28.00386113818963
 31
0
 12
-105.1007184789176
 22
28.00386113818963
 32
0
 13
-105.1007184789176
 23
28.00386113818963
 33
0
  0
LINE
  5
D9
100
AcDbEntity
  8
dim
  6
ByBlock
 62
    0
370
   -2
100
AcDbLine
 10
-79.79030194721162
 20
40.49999926363253
 11
-106.7670031366904
 21
40.49999926363253
  0
LINE
  5
DA
100
AcDbEntity
  8
dim
  6
ByBlock
 62
    0
370
   -2
100
AcDbLine
 10
-83.62499999999999
 20
25.50386113818963
 11
-106.7670031366904
 21
25.50386113818963
  0
ENDBLK
  5
74
330
72
100
AcDbEntity
  8
0
100
AcDbBlockEnd
  0
BLOCK
  5
76
330
75
100
AcDbEntity
  8
0
100
AcDbBlockBegin
  2
*D13
 70
    1
 10
0
 20
0
  3
*D13
  1

  0
LINE
  5
DB
100
AcDbEntity
  8
dim
  6
ByBlock
 62
    0
370
   -2
100
AcDbLine
 10
-1.400000000000006
 20
-10.41405171459249
 11
-78.09999999999997
 21
-10.41405171459249
  0
MTEXT
  5
DC
100
AcDbEntity
  8
dim
  6
CONTINUOUS
 62
    0
370
   -2
100
AcDbMText
 10
-39.74999999999999
 20
-8.539051714592491
 30
0
 40
2.5
 41
5.972222222222379
 71
    5
 72
    1
  1
76,7
  7
STANDARD
210
0
220
0
230
1
 50
0
 73
    2
 44
1
  0
SOLID
  5
DD
100
AcDbEntity
  8
dim
  6
ByBlock
 62
    0
370
   -2
100
AcDbTrace
 10
-1.400000000000006
 20
-10.41405171459249
 30
0
 11
-3.900000000000006
 21
-10.83033637236533
 31
0
 12
-3.900000000000006
 22
-9.997767056819651
 32
0
 13
-3.900000000000006
 23
-9.997767056819651
 33
0
  0
SOLID
  5
DE
100
AcDbEntity
  8
dim
  6
ByBlock
 62
    0
370
   -2
100
AcDbTrace
 10
-78.09999999999997
 20
-10.41405171459249
 30
0
 11
-75.59999999999997
 21
-9.997767056819651
 31
0
 12
-75.59999999999997
 22
-10.83033637236533
 32
0
 13
-75.59999999999997
 23
-10.83033637236533
 33
0
  0
LINE
  5
DF
100
AcDbEntity
  8
dim
  6
ByBlock
 62
    0
370
   -2
100
AcDbLine
 10
-1.4
 20
1.775000007476578
 11
-1.400000000000007
 21
-11.66405171459249
  0
LINE
  5
E0
100
AcDbEntity
  8
dim
  6
ByBlock
 62
    0
370
   -2
100
AcDbLine
 10
-78.09999999999997
 20
17.87500067131123
 11
-78.09999999999997
 21
-11.66405171459249
  0
ENDBLK
  5
77
330
75
100
AcDbEntity
  8
0
100
AcDbBlockEnd
  0
BLOCK
  5
79
330
78
100
AcDbEntity
  8
0
100
AcDbBlockBegin
  2
*D5
 70
    1
 10
0
 20
0
  3
*D5
  1

  0
LINE
  5
E1
100
AcDbEntity
  8
dim
  6
ByBlock
 62
    0
370
   -2
100
AcDbLine
 10
-110.7369255533465
 20
40.49999926363253
 11
-110.7369255533465
 21
20.50386113818963
  0
MTEXT
  5
E2
100
AcDbEntity
  8
dim
  6
CONTINUOUS
 62
    0
370
   -2
100
AcDbMText
 10
-112.6119255533465
 20
30.50193020091108
 30
0
 40
2.5
 41
3.055555555555556
 71
    5
 72
    1
  1
20
  7
STANDARD
210
0
220
0
230
1
 50
90
 73
    2
 44
1
  0
SOLID
  5
E3
100
AcDbEntity
  8
dim
  6
ByBlock
 62
    0
370
   -2
100
AcDbTrace
 10
-110.7369255533465
 20
40.49999926363253
 30
0
 11
-110.3206408955737
 21
37.99999926363253
 31
0
 12
-111.1532102111193
 22
37.99999926363253
 32
0
 13
-111.1532102111193
 23
37.99999926363253
 33
0
  0
SOLID
  5
E4
100
AcDbEntity
  8
dim
  6
ByBlock
 62
    0
370
   -2
100
AcDbTrace
 10
-110.7369255533465
 20
20.50386113818963
 30
0
 11
-111.1532102111193
 21
23.00386113818963
 31
0
 12
-110.3206408955737
 22
23.00386113818963
 32
0
 13
-110.3206408955737
 23
23.00386113818963
 33
0
  0
LINE
  5
E5
100
AcDbEntity
  8
dim
  6
ByBlock
 62
    0
370
   -2
100
AcDbLine
 10
-79.79030194721162
 20
40.49999926363253
 11
-111.9869255533465
 21
40.49999926363253
  0
LINE
  5
E6
100
AcDbEntity
  8
dim
  6
ByBlock
 62
    0
370
   -2
100
AcDbLine
 10
-83.62499999999999
 20
20.50386113818963
 11
-111.9869255533465
 21
20.50386113818963
  0
ENDBLK
  5
7A
330
78
100
AcDbEntity
  8
0
100
AcDbBlockEnd
  0
BLOCK
  5
7C
330
7B
100
AcDbEntity
  8
0
100
AcDbBlockBegin
  2
*D2
 70
    1
 10
0
 20
0
  3
*D2
  1

  0
LINE
  5
E7
100
AcDbEntity
  8
dim
  6
ByBlock
 62
    0
370
   -2
100
AcDbLine
 10
-100.1343165116363
 20
40.49999926363253
 11
-100.1343165116363
 21
30.50386113818963
  0
MTEXT
  5
E8
100
AcDbEntity
  8
dim
  6
CONTINUOUS
 62
    0
370
   -2
100
AcDbMText
 10
-102.0093165116363
 20
35.50193020091108
 30
0
 40
2.5
 41
2.5
 71
    5
 72
    1
  1
10
  7
STANDARD
210
0
220
0
230
1
 50
90
 73
    2
 44
1
  0
SOLID
  5
E9
100
AcDbEntity
  8
dim
  6
ByBlock
 62
    0
370
   -2
100
AcDbTrace
 10
-100.1343165116363
 20
40.49999926363253
 30
0
 11
-99.71803185386347
 21
37.99999926363253
 31
0
 12
-100.5506011694091
 22
37.99999926363253
 32
0
 13
-100.5506011694091
 23
37.99999926363253
 33
0
  0
SOLID
  5
EA
100
AcDbEntity
  8
dim
  6
ByBlock
 62
    0
370
   -2
100
AcDbTrace
 10
-100.1343165116363
 20
30.50386113818963
 30
0
 11
-100.5506011694091
 21
33.00386113818963
 31
0
 12
-99.71803185386347
 22
33.00386113818963
 32
0
 13
-99.71803185386347
 23
33.00386113818963
 33
0
  0
LINE
  5
EB
100
AcDbEntity
  8
dim
  6
ByBlock
 62
    0
370
   -2
100
AcDbLine
 10
-78.87923817844225
 20
40.49999926363253
 11
-101.3843165116363
 21
40.49999926363253
  0
LINE
  5
EC
100
AcDbEntity
  8
dim
  6
ByBlock
 62
    0
370
   -2
100
AcDbLine
 10
-83.62499999999999
 20
30.50386113818963
 11
-101.3843165116363
 21
30.50386113818963
  0
ENDBLK
  5
7D
330
7B
100
AcDbEntity
  8
0
100
AcDbBlockEnd
  0
BLOCK
  5
7F
330
7E
100
AcDbEntity
  8
0
100
AcDbBlockBegin
  2
*D9
 70
    1
 10
0
 20
0
  3
*D9
  1

  0
LINE
  5
ED
100
AcDbEntity
  8
dim
  6
ByBlock
 62
    0
370
   -2
100
AcDbLine
 10
4
 20
8.500001956505955
 11
3.999999999999999
 21
-5
  0
MTEXT
  5
EE
100
AcDbEntity
  8
dim
  6
CONTINUOUS
 62
    0
370
   -2
100
AcDbMText
 10
2.125
 20
6.138890845394998
 30
0
 40
2.5
 41
4.027777777778088
 71
    5
 72
    1
  1
3,5
  7
STANDARD
210
0
220
0
230
1
 50
90
 73
    2
 44
1
  0
SOLID
  5
EF
100
AcDbEntity
  8
dim
  6
ByBlock
 62
    0
370
   -2
100
AcDbTrace
 10
3.999999999999999
 20
3.500001956505954
 30
0
 11
3.583715342227159
 21
6.000001956505954
 31
0
 12
4.41628465777284
 22
6.000001956505954
 32
0
 13
4.41628465777284
 23
6.000001956505954
 33
0
  0
SOLID
  5
F0
100
AcDbEntity
  8
dim
  6
ByBlock
 62
    0
370
   -2
100
AcDbTrace
 10
3.999999999999999
 20
-2.48689957516035e-016
 30
0
 11
4.41628465777284
 21
-2.5
 31
0
 12
3.583715342227158
 22
-2.5
 32
0
 13
3.583715342227158
 23
-2.5
 33
0
  0
LINE
  5
F1
100
AcDbEntity
  8
dim
  6
ByBlock
 62
    0
370
   -2
100
AcDbLine
 10
-19.62500088638247
 20
3.500001956505955
 11
5.249999999999999
 21
3.500001956505954
  0
LINE
  5
F2
100
AcDbEntity
  8
dim
  6
ByBlock
 62
    0
370
   -2
100
AcDbLine
 10
0.625
 20
0
 11
5.249999999999999
 21
-2.48689957516035e-016
  0
ENDBLK
  5
80
330
7E
100
AcDbEntity
  8
0
100
AcDbBlockEnd
  0
BLOCK
  5
82
330
81
100
AcDbEntity
  8
0
100
AcDbBlockBegin
  2
*D3
 70
    1
 10
0
 20
0
  3
*D3
  1

  0
LINE
  5
F3
100
AcDbEntity
  8
dim
  6
ByBlock
 62
    0
370
   -2
100
AcDbLine
 10
-126.0100257465677
 20
40.49999926363253
 11
-126.0100257465677
 21
6.713113405720783e-007
  0
MTEXT
  5
F4
100
AcDbEntity
  8
dim
  6
CONTINUOUS
 62
    0
370
   -2
100
AcDbMText
 10
-127.8850257465677
 20
20.24999996747194
 30
0
 40
2.5
 41
6.250000000000156
 71
    5
 72
    1
  1
40,5
  7
STANDARD
210
0
220
0
230
1
 50
90
 73
    2
 44
1
  0
SOLID
  5
F5
100
AcDbEntity
  8
dim
  6
ByBlock
 62
    0
370
   -2
100
AcDbTrace
 10
-126.0100257465677
 20
40.49999926363253
 30
0
 11
-125.5937410887949
 21
37.99999926363253
 31
0
 12
-126.4263104043405
 22
37.99999926363253
 32
0
 13
-126.4263104043405
 23
37.99999926363253
 33
0
  0
SOLID
  5
F6
100
AcDbEntity
  8
dim
  6
ByBlock
 62
    0
370
   -2
100
AcDbTrace
 10
-126.0100257465677
 20
6.713113405720783e-007
 30
0
 11
-126.4263104043405
 21
2.500000671311341
 31
0
 12
-125.5937410887949
 22
2.500000671311341
 32
0
 13
-125.5937410887949
 23
2.500000671311341
 33
0
  0
LINE
  5
F7
100
AcDbEntity
  8
dim
  6
ByBlock
 62
    0
370
   -2
100
AcDbLine
 10
-78.87923817844225
 20
40.49999926363253
 11
-127.2600257465677
 21
40.49999926363253
  0
LINE
  5
F8
100
AcDbEntity
  8
dim
  6
ByBlock
 62
    0
370
   -2
100
AcDbLine
 10
-100.625
 20
6.713113407041274e-007
 11
-127.2600257465677
 21
6.713113407251541e-007
  0
ENDBLK
  5
83
330
81
100
AcDbEntity
  8
0
100
AcDbBlockEnd
  0
BLOCK
  5
85
330
84
100
AcDbEntity
  8
0
100
AcDbBlockBegin
  2
*D10
 70
    1
 10
0
 20
0
  3
*D10
  1

  0
LINE
  5
F9
100
AcDbEntity
  8
dim
  6
ByBlock
 62
    0
370
   -2
100
AcDbLine
 10
0
 20
-15.96821262904182
 11
-78.09999999999997
 21
-15.96821262904182
  0
MTEXT
  5
FA
100
AcDbEntity
  8
dim
  6
CONTINUOUS
 62
    0
370
   -2
100
AcDbMText
 10
-39.04999999999998
 20
-14.09321262904182
 30
0
 40
2.5
 41
5.416666666666666
 71
    5
 72
    1
  1
78,1
  7
STANDARD
210
0
220
0
230
1
 50
0
 73
    2
 44
1
  0
SOLID
  5
FB
100
AcDbEntity
  8
dim
  6
ByBlock
 62
    0
370
   -2
100
AcDbTrace
 10
0
 20
-15.96821262904182
 30
0
 11
-2.5
 21
-16.38449728681466
 31
0
 12
-2.5
 22
-15.55192797126898
 32
0
 13
-2.5
 23
-15.55192797126898
 33
0
  0
SOLID
  5
FC
100
AcDbEntity
  8
dim
  6
ByBlock
 62
    0
370
   -2
100
AcDbTrace
 10
-78.09999999999997
 20
-15.96821262904182
 30
0
 11
-75.59999999999997
 21
-15.55192797126898
 31
0
 12
-75.59999999999997
 22
-16.38449728681466
 32
0
 13
-75.59999999999997
 23
-16.38449728681466
 33
0
  0
LINE
  5
FD
100
AcDbEntity
  8
dim
  6
ByBlock
 62
    0
370
   -2
100
AcDbLine
 10
1.072377592541834e-016
 20
0.3749999999999999
 11
-2.296136913416957e-016
 21
-17.21821262904182
  0
LINE
  5
FE
100
AcDbEntity
  8
dim
  6
ByBlock
 62
    0
370
   -2
100
AcDbLine
 10
-78.09999999999997
 20
17.87500067131123
 11
-78.09999999999997
 21
-17.21821262904182
  0
ENDBLK
  5
86
330
84
100
AcDbEntity
  8
0
100
AcDbBlockEnd
  0
BLOCK
  5
88
330
87
100
AcDbEntity
  8
0
100
AcDbBlockBegin
  2
*D18
 70
    1
 10
0
 20
0
  3
*D18
  1

  0
LINE
  5
FF
100
AcDbEntity
  8
dim
  6
ByBlock
 62
    0
370
   -2
100
AcDbLine
 10
19
 20
26.65000116707765
 11
19
 21
13.40000118076504
  0
MTEXT
  5
100
100
AcDbEntity
  8
dim
  6
CONTINUOUS
 62
    0
370
   -2
100
AcDbMText
 10
17.125
 20
25.26111227818891
 30
0
 40
2.5
 41
5.972222222222532
 71
    5
 72
    1
  1
3,25
  7
STANDARD
210
0
220
0
230
1
 50
90
 73
    2
 44
1
  0
SOLID
  5
101
100
AcDbEntity
  8
dim
  6
ByBlock
 62
    0
370
   -2
100
AcDbTrace
 10
19
 20
21.65000116707765
 30
0
 11
18.58371534222716
 21
24.15000116707765
 31
0
 12
19.41628465777285
 22
24.15000116707765
 32
0
 13
19.41628465777285
 23
24.15000116707765
 33
0
  0
SOLID
  5
102
100
AcDbEntity
  8
dim
  6
ByBlock
 62
    0
370
   -2
100
AcDbTrace
 10
19
 20
18.40000118076504
 30
0
 11
19.41628465777285
 21
15.90000118076504
 31
0
 12
18.58371534222716
 22
15.90000118076504
 32
0
 13
18.58371534222716
 23
15.90000118076504
 33
0
  0
LINE
  5
103
100
AcDbEntity
  8
dim
  6
ByBlock
 62
    0
370
   -2
100
AcDbLine
 10
-2.075000130934727
 20
21.65000116707765
 11
20.25
 21
21.65000116707765
  0
LINE
  5
104
100
AcDbEntity
  8
dim
  6
ByBlock
 62
    0
370
   -2
100
AcDbLine
 10
-1.774999999999971
 20
18.40000118076504
 11
20.25
 21
18.40000118076504
  0
ENDBLK
  5
89
330
87
100
AcDbEntity
  8
0
100
AcDbBlockEnd
  0
BLOCK
  5
8B
330
8A
100
AcDbEntity
  8
0
100
AcDbBlockBegin
  2
*D21
 70
    1
 10
0
 20
0
  3
*D21
  1

  0
LINE
  5
105
100
AcDbEntity
  8
dim
  6
ByBlock
 62
    0
370
   -2
100
AcDbLine
 10
2.842170943040401e-014
 20
45.93311023425773
 11
-20.02499986349218
 21
45.93311023425773
  0
MTEXT
  5
106
100
AcDbEntity
  8
dim
  6
CONTINUOUS
 62
    0
370
   -2
100
AcDbMText
 10
-10.01249993174607
 20
47.80811023425773
 30
0
 40
2.5
 41
7.916666666666667
 71
    5
 72
    1
  1
20,02
  7
STANDARD
210
0
220
0
230
1
 50
0
 73
    2
 44
1
  0
SOLID
  5
107
100
AcDbEntity
  8
dim
  6
ByBlock
 62
    0
370
   -2
100
AcDbTrace
 10
2.842170943040401e-014
 20
45.93311023425773
 30
0
 11
-2.499999999999972
 21
45.51682557648489
 31
0
 12
-2.499999999999972
 22
46.34939489203057
 32
0
 13
-2.499999999999972
 23
46.34939489203057
 33
0
  0
SOLID
  5
108
100
AcDbEntity
  8
dim
  6
ByBlock
 62
    0
370
   -2
100
AcDbTrace
 10
-20.02499986349218
 20
45.93311023425773
 30
0
 11
-17.52499986349218
 21
46.34939489203057
 31
0
 12
-17.52499986349218
 22
45.51682557648489
 32
0
 13
-17.52499986349218
 23
45.51682557648489
 33
0
  0
LINE
  5
109
100
AcDbEntity
  8
dim
  6
ByBlock
 62
    0
370
   -2
100
AcDbLine
 10
2.779384456418586e-014
 20
38.67500067131123
 11
2.849824732751791e-014
 21
47.18311023425773
  0
LINE
  5
10A
100
AcDbEntity
  8
dim
  6
ByBlock
 62
    0
370
   -2
100
AcDbLine
 10
-20.02499986349218
 20
37.18257682331815
 11
-20.02499986349218
 21
47.18311023425773
  0
ENDBLK
  5
8C
330
8A
100
AcDbEntity
  8
0
100
AcDbBlockEnd
  0
BLOCK
  5
8E
330
8D
100
AcDbEntity
  8
0
100
AcDbBlockBegin
  2
*D14
 70
    1
 10
0
 20
0
  3
*D14
  1

  0
LINE
  5
10B
100
AcDbEntity
  8
0
  6
ByBlock
 62
    0
370
   -2
100
AcDbLine
 10
58
 20
21.57
 11
58
 21
33.57
  0
MTEXT
  5
10C
100
AcDbEntity
  8
0
  6
CONTINUOUS
 62
    0
370
   -2
100
AcDbMText
 10
56.125
 20
27.57
 30
0
 40
2.5
 41
1.111111111111111
 71
    5
 72
    1
  1
2
  7
STANDARD
210
0
220
0
230
1
 50
90
 73
    2
 44
1
  0
SOLID
  5
10D
100
AcDbEntity
  8
0
  6
ByBlock
 62
    0
370
   -2
100
AcDbTrace
 10
58
 20
26.57
 30
0
 11
58.41628465777284
 21
24.07
 31
0
 12
57.58371534222716
 22
24.07
 32
0
 13
57.58371534222716
 23
24.07
 33
0
  0
SOLID
  5
10E
100
AcDbEntity
  8
0
  6
ByBlock
 62
    0
370
   -2
100
AcDbTrace
 10
58
 20
28.57
 30
0
 11
57.58371534222716
 21
31.07
 31
0
 12
58.41628465777284
 22
31.07
 32
0
 13
58.41628465777284
 23
31.07
 33
0
  0
LINE
  5
10F
100
AcDbEntity
  8
0
  6
ByBlock
 62
    0
370
   -2
100
AcDbLine
 10
60.375
 20
26.57
 11
56.75
 21
26.57
  0
LINE
  5
110
100
AcDbEntity
  8
0
  6
ByBlock
 62
    0
370
   -2
100
AcDbLine
 10
60.375
 20
28.57
 11
56.75
 21
28.57
  0
ENDBLK
  5
8F
330
8D
100
AcDbEntity
  8
0
100
AcDbBlockEnd
  0
BLOCK
  5
91
330
90
100
AcDbEntity
  8
0
100
AcDbBlockBegin
  2
*D8
 70
    1
 10
0
 20
0
  3
*D8
  1

  0
LINE
  5
111
100
AcDbEntity
  8
dim
  6
ByBlock
 62
    0
370
   -2
100
AcDbLine
 10
-10.49999999999995
 20
-5.589258232960924
 11
-30.00000030936197
 21
-5.589258232960924
  0
MTEXT
  5
112
100
AcDbEntity
  8
dim
  6
CONTINUOUS
 62
    0
370
   -2
100
AcDbMText
 10
-20.25000015468096
 20
-3.714258232960924
 30
0
 40
2.5
 41
5.416666666666822
 71
    5
 72
    1
  1
19,5
  7
STANDARD
210
0
220
0
230
1
 50
0
 73
    2
 44
1
  0
SOLID
  5
113
100
AcDbEntity
  8
dim
  6
ByBlock
 62
    0
370
   -2
100
AcDbTrace
 10
-10.49999999999995
 20
-5.589258232960924
 30
0
 11
-12.99999999999995
 21
-6.005542890733765
 31
0
 12
-12.99999999999995
 22
-5.172973575188084
 32
0
 13
-12.99999999999995
 23
-5.172973575188084
 33
0
  0
SOLID
  5
114
100
AcDbEntity
  8
dim
  6
ByBlock
 62
    0
370
   -2
100
AcDbTrace
 10
-30.00000030936197
 20
-5.589258232960924
 30
0
 11
-27.50000030936197
 21
-5.172973575188085
 31
0
 12
-27.50000030936197
 22
-6.005542890733765
 32
0
 13
-27.50000030936197
 23
-6.005542890733765
 33
0
  0
LINE
  5
115
100
AcDbEntity
  8
dim
  6
ByBlock
 62
    0
370
   -2
100
AcDbLine
 10
-10.49999999999995
 20
9.875000671311261
 11
-10.49999999999995
 21
-6.839258232960924
  0
LINE
  5
116
100
AcDbEntity
  8
dim
  6
ByBlock
 62
    0
370
   -2
100
AcDbLine
 10
-30.00000030936197
 20
9.87500067131125
 11
-30.00000030936197
 21
-6.839258232960924
  0
ENDBLK
  5
92
330
90
100
AcDbEntity
  8
0
100
AcDbBlockEnd
  0
BLOCK
  5
94
330
93
100
AcDbEntity
  8
0
100
AcDbBlockBegin
  2
*D7
 70
    1
 10
0
 20
0
  3
*D7
  1

  0
LINE
  5
117
100
AcDbEntity
  8
dim
  6
ByBlock
 62
    0
370
   -2
100
AcDbLine
 10
0
 20
-5.589258232960923
 11
-10.49999999999995
 21
-5.589258232960923
  0
MTEXT
  5
118
100
AcDbEntity
  8
dim
  6
CONTINUOUS
 62
    0
370
   -2
100
AcDbMText
 10
-5.249999999999975
 20
-3.714258232960923
 30
0
 40
2.5
 41
5.416666666666822
 71
    5
 72
    1
  1
10,5
  7
STANDARD
210
0
220
0
230
1
 50
0
 73
    2
 44
1
  0
SOLID
  5
119
100
AcDbEntity
  8
dim
  6
ByBlock
 62
    0
370
   -2
100
AcDbTrace
 10
0
 20
-5.589258232960923
 30
0
 11
-2.5
 21
-6.005542890733763
 31
0
 12
-2.5
 22
-5.172973575188082
 32
0
 13
-2.5
 23
-5.172973575188082
 33
0
  0
SOLID
  5
11A
100
AcDbEntity
  8
dim
  6
ByBlock
 62
    0
370
   -2
100
AcDbTrace
 10
-10.49999999999995
 20
-5.589258232960923
 30
0
 11
-7.99999999999995
 21
-5.172973575188083
 31
0
 12
-7.99999999999995
 22
-6.005542890733763
 32
0
 13
-7.99999999999995
 23
-6.005542890733763
 33
0
  0
LINE
  5
11B
100
AcDbEntity
  8
dim
  6
ByBlock
 62
    0
370
   -2
100
AcDbLine
 10
1.072377592541834e-016
 20
0.3749999999999999
 11
-2.296136913416957e-016
 21
-6.839258232960923
  0
LINE
  5
11C
100
AcDbEntity
  8
dim
  6
ByBlock
 62
    0
370
   -2
100
AcDbLine
 10
-10.49999999999995
 20
9.875000671311261
 11
-10.49999999999995
 21
-6.839258232960923
  0
ENDBLK
  5
95
330
93
100
AcDbEntity
  8
0
100
AcDbBlockEnd
  0
ENDSEC
  0
SECTION
  2
ENTITIES
  0
HATCH
  5
11D
100
AcDbEntity
  8
0
  6
ByLayer
 62
    3
370
   -1
100
AcDbHatch
 10
0
 20
0
 30
0
210
0
220
0
230
1
  2
ansi31
 70
    0
 71
    0
 91
    1
 92
    0
 93
    4
 72
    1
 10
81
 20
20
 11
81
 21
17
 72
    1
 10
81
 20
17
 11
61.5
 21
17
 72
    1
 10
61.5
 20
17
 11
61.5
 21
20
 72
    1
 10
61.5
 20
20
 11
81
 21
20
 97
    0
 75
    0
 76
    1
 52
0
 41
0.1
 77
    0
 78
    0
 98
    0
  0
HATCH
  5
11E
100
AcDbEntity
  8
0
  6
ByLayer
 62
  256
370
   -1
100
AcDbHatch
 10
0
 20
0
 30
0
210
0
220
0
230
1
  2
ar-brstd
 70
    0
 71
    0
 91
    1
 92
    0
 93
    4
 72
    1
 10
61.5
 20
20
 11
81
 21
20
 72
    1
 10
81
 20
20
 11
81
 21
17
 72
    1
 10
81
 20
17
 11
61.5
 21
17
 72
    1
 10
61.5
 20
17
 11
61.5
 21
20
 97
    0
 75
    0
 76
    1
 52
0
 41
1
 77
    0
 78
    0
 98
    0
  0
ARC
  5
11F
100
AcDbEntity
  8
0
  6
ByLayer
 62
  256
370
   -1
100
AcDbCircle
 10
-18.49999999999997
 20
18.50000067131123
 40
1
100
AcDbArc
 50
90
 51
180
  0
LINE
  5
120
100
AcDbEntity
  8
0
  6
ByLayer
 62
  256
370
   -1
100
AcDbLine
 10
-2.499999999999972
 20
19.50000067131123
 11
-18.49999999999997
 21
19.50000067131123
  0
ARC
  5
121
100
AcDbEntity
  8
0
  6
ByLayer
 62
  256
370
   -1
100
AcDbCircle
 10
-2.499999999999972
 20
18.50000067131123
 40
1
100
AcDbArc
 50
360
 51
90
  0
ARC
  5
122
100
AcDbEntity
  8
0
  6
ByLayer
 62
  256
370
   -1
100
AcDbCircle
 10
-2.499999999999972
 20
2.500000671311227
 40
1
100
AcDbArc
 50
270
 51
360
  0
ARC
  5
123
100
AcDbEntity
  8
0
  6
ByLayer
 62
  256
370
   -1
100
AcDbCircle
 10
-16.89999999999998
 20
16.90000067131135
 40
0.8
100
AcDbArc
 50
90
 51
180
  0
LINE
  5
124
100
AcDbEntity
  8
0
  6
ByLayer
 62
  256
370
   -1
100
AcDbLine
 10
-4.099999999999966
 20
17.70000067131124
 11
-16.89999999999998
 21
17.70000067131124
  0
ARC
  5
125
100
AcDbEntity
  8
0
  6
ByLayer
 62
  256
370
   -1
100
AcDbCircle
 10
-4.099999999999966
 20
16.90000067131135
 40
0.8
100
AcDbArc
 50
360
 51
90
  0
LINE
  5
126
100
AcDbEntity
  8
0
  6
ByLayer
 62
  256
370
   -1
100
AcDbLine
 10
-3.299999999999955
 20
16.90000067131135
 11
-3.299999999999955
 21
4.100000671311221
  0
ARC
  5
127
100
AcDbEntity
  8
0
  6
ByLayer
 62
  256
370
   -1
100
AcDbCircle
 10
-4.099999999999966
 20
4.100000671311221
 40
0.8
100
AcDbArc
 50
270
 51
360
  0
LINE
  5
128
100
AcDbEntity
  8
0
  6
ByLayer
 62
  256
370
   -1
100
AcDbLine
 10
-16.89999999999998
 20
3.300000671311324
 11
-4.099999999999966
 21
3.300000671311324
  0
LINE
  5
129
100
AcDbEntity
  8
0
  6
ByLayer
 62
  256
370
   -1
100
AcDbLine
 10
-17.69999999999996
 20
4.100000671311221
 11
-17.69999999999996
 21
16.90000067131135
  0
ARC
  5
12A
100
AcDbEntity
  8
0
  6
ByLayer
 62
  256
370
   -1
100
AcDbCircle
 10
-16.89999999999998
 20
4.100000671311221
 40
0.8
100
AcDbArc
 50
180
 51
270
  0
CIRCLE
  5
12B
100
AcDbEntity
  8
0
  6
ByLayer
 62
  256
370
   -1
100
AcDbCircle
 10
-82.99999999999999
 20
20.50386113818963
 40
1.5
  0
CIRCLE
  5
12C
100
AcDbEntity
  8
0
  6
ByLayer
 62
  256
370
   -1
100
AcDbCircle
 10
-82.99999999999999
 20
25.50386113818963
 40
1.5
  0
CIRCLE
  5
12D
100
AcDbEntity
  8
0
  6
ByLayer
 62
  256
370
   -1
100
AcDbCircle
 10
-82.99999999999999
 20
30.50386113818963
 40
1.5
  0
DIMENSION
  5
12E
100
AcDbEntity
  8
dim
  6
ByLayer
 62
  256
370
   -1
100
AcDbDimension
  2
*D1
 10
-99.99999999999997
 20
6.713113406275895e-007
 30
0
 11
-108.9403682580838
 21
-4.856483695990563
 31
0
 70
   36
 71
    5
  3
Standard
 53
0
210
0
220
0
230
1
100
AcDbRadialDimension
 15
-115.5141360335015
 25
-12.62186856957402
 35
0
 40
0
  0
DIMENSION
  5
12F
100
AcDbEntity
  8
dim
  6
ByLayer
 62
  256
370
   -1
100
AcDbDimension
  2
*D2
 10
-100.1343165116363
 20
30.38667152004059
 30
0
 11
-102.0093165116363
 21
35.50193020091108
 31
0
 70
   32
 71
    5
  3
Standard
 53
0
210
0
220
0
230
1
100
AcDbAlignedDimension
 13
-78.25423817844225
 23
40.49999926363253
 33
0
 14
-82.99999999999999
 24
30.50386113818963
 34
0
 50
90
100
AcDbRotatedDimension
  0
DIMENSION
  5
130
100
AcDbEntity
  8
dim
  6
ByLayer
 62
  256
370
   -1
100
AcDbDimension
  2
*D3
 10
-126.0100257465677
 20
-0.4628467428707722
 30
0
 11
-127.8850257465677
 21
20.24999996747194
 31
0
 70
   32
 71
    5
  3
Standard
 53
0
210
0
220
0
230
1
100
AcDbAlignedDimension
 13
-78.25423817844225
 23
40.49999926363253
 33
0
 14
-99.99999999999997
 24
6.713113406275895e-007
 34
0
 50
90
100
AcDbRotatedDimension
  0
DIMENSION
  5
131
100
AcDbEntity
  8
dim
  6
ByLayer
 62
  256
370
   -1
100
AcDbDimension
  2
*D4
 10
-105.5170031366904
 20
25.50386113818963
 30
0
 11
-107.3920031366904
 21
33.00193020091108
 31
0
 70
   32
 71
    5
  3
Standard
 53
0
210
0
220
0
230
1
100
AcDbAlignedDimension
 13
-79.16530194721162
 23
40.49999926363253
 33
0
 14
-82.99999999999999
 24
25.50386113818963
 34
0
 50
90
100
AcDbRotatedDimension
  0
DIMENSION
  5
132
100
AcDbEntity
  8
dim
  6
ByLayer
 62
  256
370
   -1
100
AcDbDimension
  2
*D5
 10
-110.7369255533465
 20
20.50386113818963
 30
0
 11
-112.6119255533465
 21
30.50193020091108
 31
0
 70
   32
 71
    5
  3
Standard
 53
0
210
0
220
0
230
1
100
AcDbAlignedDimension
 13
-79.16530194721162
 23
40.49999926363253
 33
0
 14
-82.99999999999999
 24
20.50386113818963
 34
0
 50
90
100
AcDbRotatedDimension
  0
CIRCLE
  5
133
100
AcDbEntity
  8
0
  6
ByLayer
 62
  256
370
   -1
100
AcDbCircle
 10
-99.99999999999997
 20
6.713113406275895e-007
 40
18
  0
LINE
  5
134
100
AcDbEntity
  8
not-there
  6
ByLayer
 62
  256
370
   -1
100
AcDbLine
 10
-41.62384451958491
 20
55.6878581072479
 11
-43.74999999999997
 21
49.98878249157995
  0
LINE
  5
135
100
AcDbEntity
  8
not-there
  6
ByLayer
 62
  256
370
   -1
100
AcDbLine
 10
-37.87615548041504
 20
55.6878581072479
 11
-35.74999999999997
 21
49.98878249157995
  0
LINE
  5
136
100
AcDbEntity
  8
not-there
  6
ByLayer
 62
  256
370
   -1
100
AcDbLine
 10
-41.6238449206437
 20
55.68785703222568
 11
-37.87615516804175
 21
55.68785726994367
  0
LINE
  5
137
100
AcDbEntity
  8
not-there
  6
ByLayer
 62
  256
370
   -1
100
AcDbLine
 10
-35.74999999999997
 20
40.49999926363253
 11
-35.74999999999997
 21
49.98878249157993
  0
LINE
  5
138
100
AcDbEntity
  8
not-there
  6
ByLayer
 62
  256
370
   -1
100
AcDbLine
 10
-43.74999999999997
 20
40.49999926363253
 11
-43.74999999999997
 21
49.98878249157995
  0
ARC
  5
139
100
AcDbEntity
  8
not-there
  6
ByLayer
 62
  256
370
   -1
100
AcDbCircle
 10
-27.57947830210648
 20
55.66780306735144
 40
14.04438093606798
100
AcDbArc
 50
93.10602709561641
 51
179.9181873558202
  0
ARC
  5
13A
100
AcDbEntity
  8
not-there
  6
ByLayer
 62
  256
370
   -1
100
AcDbCircle
 10
-26.57193274427506
 20
55.00383794544824
 40
11.32489854445826
100
AcDbArc
 50
89.72509006825514
 51
176.5372503284588
  0
LINE
  5
13B
100
AcDbEntity
  8
not-there
  6
ByLayer
 62
  256
370
   -1
100
AcDbLine
 10
-28.34045695198551
 20
69.69155247226517
 11
-26.51759514442539
 21
66.32860613148699
  0
DIMENSION
  5
13C
100
AcDbEntity
  8
dim
  6
ByLayer
 62
  256
370
   -1
100
AcDbDimension
  2
*D6
 10
14.73636137641991
 20
10.50000067131126
 30
0
 11
12.86136137641991
 21
5.250000335655628
 31
0
 70
   32
 71
    5
  3
Standard
 53
0
210
0
220
0
230
1
100
AcDbAlignedDimension
 13
-1
 23
-1.110223024625157e-016
 33
0
 14
-10.49999999999995
 24
10.50000067131126
 34
0
 50
90
100
AcDbRotatedDimension
  0
DIMENSION
  5
13D
100
AcDbEntity
  8
dim
  6
ByLayer
 62
  256
370
   -1
100
AcDbDimension
  2
*D7
 10
-10.49999999999995
 20
-5.589258232960923
 30
0
 11
-5.249999999999975
 21
-3.714258232960923
 31
0
 70
   32
 71
    5
  3
Standard
 53
0
210
0
220
0
230
1
100
AcDbAlignedDimension
 13
2.220446049250313e-016
 23
0.9999999999999999
 33
0
 14
-10.49999999999995
 24
10.50000067131126
 34
0
100
AcDbRotatedDimension
  0
DIMENSION
  5
13E
100
AcDbEntity
  8
dim
  6
ByLayer
 62
  256
370
   -1
100
AcDbDimension
  2
*D8
 10
-30.00000030936197
 20
-5.589258232960924
 30
0
 11
-20.25000015468096
 21
-3.714258232960924
 31
0
 70
   32
 71
    5
  3
Standard
 53
0
210
0
220
0
230
1
100
AcDbAlignedDimension
 13
-10.49999999999995
 23
10.50000067131126
 33
0
 14
-30.00000030936197
 24
10.50000067131125
 34
0
100
AcDbRotatedDimension
  0
LINE
  5
13F
100
AcDbEntity
  8
holders
  6
ByLayer
 62
  256
370
   -1
100
AcDbLine
 10
-2.700000130934727
 20
2.700001167077652
 11
-2.700000130934725
 21
18.30000118076504
  0
LINE
  5
140
100
AcDbEntity
  8
holders
  6
ByLayer
 62
  256
370
   -1
100
AcDbLine
 10
-18.30000013093473
 20
2.700001167077648
 11
-18.30000013093473
 21
18.30000118076504
  0
LINE
  5
141
100
AcDbEntity
  8
holders
  6
ByLayer
 62
  256
370
   -1
100
AcDbLine
 10
-18.30000013093473
 20
18.30000118076504
 11
-2.700000130934724
 21
18.30000118076504
  0
LINE
  5
142
100
AcDbEntity
  8
holders
  6
ByLayer
 62
  256
370
   -1
100
AcDbLine
 10
-18.30000013093473
 20
2.700001167077648
 11
-2.700000130934727
 21
2.700001167077652
  0
LINE
  5
143
100
AcDbEntity
  8
0
  6
ByLayer
 62
  256
370
   -1
100
AcDbLine
 10
-1.499999999999972
 20
18.50000067131123
 11
-1.499999999999971
 21
2.500000671311227
  0
CIRCLE
  5
144
100
AcDbEntity
  8
holders
  6
ByLayer
 62
  256
370
   -1
100
AcDbCircle
 10
-59.25000088638249
 20
3.500000802245992
 40
1
  0
ARC
  5
145
100
AcDbEntity
  8
holders
  6
ByLayer
 62
  256
370
   -1
100
AcDbCircle
 10
-59.25000088638249
 20
3.500000802245992
 40
2
100
AcDbArc
 50
22.33175423039658
 51
157.668287129459
  0
LINE
  5
146
100
AcDbEntity
  8
holders
  6
ByLayer
 62
  256
370
   -1
100
AcDbLine
 10
-57.40000233502497
 20
4.259938536521013
 11
-57.40000233502497
 21
2.500000671311234
  0
ARC
  5
147
100
AcDbEntity
  8
holders
  6
ByLayer
 62
  256
370
   -1
100
AcDbCircle
 10
-56.40000233502497
 20
2.500000671311234
 40
1
100
AcDbArc
 50
180
 51
270
  0
LINE
  5
148
100
AcDbEntity
  8
holders
  6
ByLayer
 62
  256
370
   -1
100
AcDbLine
 10
-61.0999999863125
 20
4.259937201070336
 11
-61.09999998631251
 21
2.500000671311227
  0
ARC
  5
149
100
AcDbEntity
  8
holders
  6
ByLayer
 62
  256
370
   -1
100
AcDbCircle
 10
-62.09999998631251
 20
2.500000671311227
 40
1
100
AcDbArc
 50
270
 51
359.9999999999999
  0
CIRCLE
  5
14A
100
AcDbEntity
  8
holders
  6
ByLayer
 62
  256
370
   -1
100
AcDbCircle
 10
-20.25000088638247
 20
3.500001956505955
 40
1
  0
ARC
  5
14B
100
AcDbEntity
  8
holders
  6
ByLayer
 62
  256
370
   -1
100
AcDbCircle
 10
-20.25000088638247
 20
3.500001956505955
 40
2
100
AcDbArc
 50
22.33175423039658
 51
157.668287129459
  0
LINE
  5
14C
100
AcDbEntity
  8
holders
  6
ByLayer
 62
  256
370
   -1
100
AcDbLine
 10
-18.40000233502494
 20
4.259939690780975
 11
-18.40000233502494
 21
2.500001825571196
  0
ARC
  5
14D
100
AcDbEntity
  8
holders
  6
ByLayer
 62
  256
370
   -1
100
AcDbCircle
 10
-17.40000233502494
 20
2.500001825571196
 40
1
100
AcDbArc
 50
180
 51
270
  0
LINE
  5
14E
100
AcDbEntity
  8
holders
  6
ByLayer
 62
  256
370
   -1
100
AcDbLine
 10
-22.09999998631247
 20
4.259938355330299
 11
-22.09999998631248
 21
2.500001825571189
  0
ARC
  5
14F
100
AcDbEntity
  8
holders
  6
ByLayer
 62
  256
370
   -1
100
AcDbCircle
 10
-23.09999998631248
 20
2.500001825571189
 40
1
100
AcDbArc
 50
270
 51
359.9999999999999
  0
LINE
  5
150
100
AcDbEntity
  8
holders
  6
ByLayer
 62
  256
370
   -1
100
AcDbLine
 10
-77.99999999999997
 20
18.50000067131123
 11
-77.99999999999997
 21
21.99999884574004
  0
LINE
  5
151
100
AcDbEntity
  8
cover-mounts
  6
ByLayer
 62
  256
370
   -1
100
AcDbLine
 10
-106.9999999999998
 20
7.000000671311343
 11
-92.99999999999983
 21
7.000000671311343
  0
LINE
  5
152
100
AcDbEntity
  8
cover-mounts
  6
ByLayer
 62
  256
370
   -1
100
AcDbLine
 10
-106.9999999999998
 20
-6.999999328688657
 11
-92.99999999999983
 21
-6.999999328688657
  0
LINE
  5
153
100
AcDbEntity
  8
cover-mounts
  6
ByLayer
 62
  256
370
   -1
100
AcDbLine
 10
-92.99999999999983
 20
7.000000671311343
 11
-92.99999999999983
 21
-6.999999328688657
  0
LINE
  5
154
100
AcDbEntity
  8
cover-mounts
  6
ByLayer
 62
  256
370
   -1
100
AcDbLine
 10
-106.9999999999998
 20
-6.999999328688657
 11
-106.9999999999998
 21
7.000000671311343
  0
CIRCLE
  5
155
100
AcDbEntity
  8
holders
  6
ByLayer
 62
  256
370
   -1
100
AcDbCircle
 10
-109.9999999999999
 20
6.713113428549744e-007
 40
1
  0
CIRCLE
  5
156
100
AcDbEntity
  8
holders
  6
ByLayer
 62
  256
370
   -1
100
AcDbCircle
 10
-99.99999999999997
 20
10.0000006713113
 40
1
  0
CIRCLE
  5
157
100
AcDbEntity
  8
holders
  6
ByLayer
 62
  256
370
   -1
100
AcDbCircle
 10
-90.00000000000001
 20
6.713113347263855e-007
 40
1
  0
CIRCLE
  5
158
100
AcDbEntity
  8
holders
  6
ByLayer
 62
  256
370
   -1
100
AcDbCircle
 10
-99.99999999999999
 20
-9.999999328688617
 40
1
  0
CIRCLE
  5
159
100
AcDbEntity
  8
cover-mounts
  6
ByLayer
 62
  256
370
   -1
100
AcDbCircle
 10
-99.99999999999999
 20
-14.99999932868862
 40
1
  0
LINE
  5
15A
100
AcDbEntity
  8
cover-mounts
  6
ByLayer
 62
  256
370
   -1
100
AcDbLine
 10
-36.90000234029478
 20
1.400001825571196
 11
-2.400000052698388
 21
1.400000007476581
  0
LINE
  5
15B
100
AcDbEntity
  8
cover-mounts
  6
ByLayer
 62
  256
370
   -1
100
AcDbLine
 10
-1.399999999999971
 20
17.40000118076504
 11
-1.399999999999999
 21
2.400000007476578
  0
ARC
  5
15C
100
AcDbEntity
  8
cover-mounts
  6
ByLayer
 62
  256
370
   -1
100
AcDbCircle
 10
-2.399999999999999
 20
2.40000000747658
 40
1
100
AcDbArc
 50
269.9999969806047
 51
359.9999999999999
  0
LINE
  5
15D
100
AcDbEntity
  8
cover-mounts
  6
ByLayer
 62
  256
370
   -1
100
AcDbLine
 10
-80.40408208822251
 20
1.400000678718956
 11
-42.59999998327881
 21
1.400001825571189
  0
ARC
  5
15E
100
AcDbEntity
  8
cover-mounts
  6
ByLayer
 62
  256
370
   -1
100
AcDbCircle
 10
-80.40408205788577
 20
0.4000006787189562
 40
1
100
AcDbArc
 50
90.00000173816693
 51
181.1693828272729
  0
ARC
  5
15F
100
AcDbEntity
  8
cover-mounts
  6
ByLayer
 62
  256
370
   -1
100
AcDbCircle
 10
-99.99999999999997
 20
6.713113406275895e-007
 40
18.59999999999995
100
AcDbArc
 50
127.0105867717573
 51
222.9858860801906
  0
ARC
  5
160
100
AcDbEntity
  8
cover-mounts
  6
ByLayer
 62
  256
370
   -1
100
AcDbCircle
 10
-112.8747815515447
 20
-11.99999932868865
 40
1
100
AcDbArc
 50
222.9858860801906
 51
270
  0
LINE
  5
161
100
AcDbEntity
  8
cover-mounts
  6
ByLayer
 62
  256
370
   -1
100
AcDbLine
 10
-112.8747815515447
 20
-12.99999932868865
 11
-87.12521844845513
 21
-12.99999932868865
  0
ARC
  5
162
100
AcDbEntity
  8
cover-mounts
  6
ByLayer
 62
  256
370
   -1
100
AcDbCircle
 10
-99.99999999999997
 20
6.713113406275895e-007
 40
18.59999999999996
100
AcDbArc
 50
317.0141139198096
 51
1.169382827272905
  0
ARC
  5
163
100
AcDbEntity
  8
cover-mounts
  6
ByLayer
 62
  256
370
   -1
100
AcDbCircle
 10
-87.12521844845513
 20
-11.99999932868866
 40
1
100
AcDbArc
 50
270
 51
317.0141139198098
  0
CIRCLE
  5
164
100
AcDbEntity
  8
cover-mounts
  6
ByLayer
 62
  256
370
   -1
100
AcDbCircle
 10
-39.75000089165231
 20
3.400001956505955
 40
1
  0
ARC
  5
165
100
AcDbEntity
  8
cover-mounts
  6
ByLayer
 62
  256
370
   -1
100
AcDbCircle
 10
-39.75000089165231
 20
3.400001956505955
 40
2
100
AcDbArc
 50
22.33175423039658
 51
157.668287129459
  0
LINE
  5
166
100
AcDbEntity
  8
cover-mounts
  6
ByLayer
 62
  256
370
   -1
100
AcDbLine
 10
-37.90000234029478
 20
4.159939690780975
 11
-37.90000234029478
 21
2.400001825571196
  0
ARC
  5
167
100
AcDbEntity
  8
cover-mounts
  6
ByLayer
 62
  256
370
   -1
100
AcDbCircle
 10
-36.90000234029478
 20
2.400001825571196
 40
1
100
AcDbArc
 50
180
 51
270
  0
LINE
  5
168
100
AcDbEntity
  8
cover-mounts
  6
ByLayer
 62
  256
370
   -1
100
AcDbLine
 10
-41.59999999158231
 20
4.1599383553303
 11
-41.59999999158232
 21
2.400001825571189
  0
ARC
  5
169
100
AcDbEntity
  8
cover-mounts
  6
ByLayer
 62
  256
370
   -1
100
AcDbCircle
 10
-42.59999999158232
 20
2.400001825571189
 40
1
100
AcDbArc
 50
270
 51
359.9999999999999
  0
LINE
  5
16A
100
AcDbEntity
  8
cover-mounts
  6
ByLayer
 62
  256
370
   -1
100
AcDbLine
 10
-4.159937865209747
 20
18.40000118076504
 11
-2.399999999999971
 21
18.40000118076504
  0
ARC
  5
16B
100
AcDbEntity
  8
cover-mounts
  6
ByLayer
 62
  256
370
   -1
100
AcDbCircle
 10
-2.399999999999971
 20
17.40000118076504
 40
1
100
AcDbArc
 50
0
 51
90
  0
ARC
  5
16C
100
AcDbEntity
  8
cover-mounts
  6
ByLayer
 62
  256
370
   -1
100
AcDbCircle
 10
-0.9999999999999998
 20
0.9999999999999999
 40
1
100
AcDbArc
 50
270
 51
0
  0
LINE
  5
16D
100
AcDbEntity
  8
cover-mounts
  6
ByLayer
 62
  256
370
   -1
100
AcDbLine
 10
-0.9999999999999998
 20
-1.110223024625157e-016
 11
-79.02382302849476
 21
6.630161627322326e-007
  0
ARC
  5
16E
100
AcDbEntity
  8
cover-mounts
  6
ByLayer
 62
  256
370
   -1
100
AcDbCircle
 10
-79.02382303699238
 20
-0.9999993369838373
 40
1
100
AcDbArc
 50
89.99999951312212
 51
177.2705973405633
  0
ARC
  5
16F
100
AcDbEntity
  8
cover-mounts
  6
ByLayer
 62
  256
370
   -1
100
AcDbCircle
 10
-99.99999999999997
 20
6.713113406275895e-007
 40
20
100
AcDbArc
 50
127.0105867717572
 51
357.2705973405633
  0
DIMENSION
  5
170
100
AcDbEntity
  8
dim
  6
ByLayer
 62
  256
370
   -1
100
AcDbDimension
  2
*D9
 10
3.999999999999999
 20
-4.898425415289508e-016
 30
0
 11
2.124999999999999
 21
1.750000978252977
 31
0
 70
   32
 71
    5
 72
    0
  3
Standard
 53
0
210
0
220
0
230
1
100
AcDbAlignedDimension
 13
-20.25000088638247
 23
3.500001956505955
 33
0
 14
0
 24
0
 34
0
 50
90
100
AcDbRotatedDimension
  0
LINE
  5
171
100
AcDbEntity
  8
dim
  6
ByLayer
 62
  256
370
   -1
100
AcDbLine
 10
-78.09999999999997
 20
18.50000067131123
 11
-78.09999999999997
 21
21.99999884574004
  0
DIMENSION
  5
172
100
AcDbEntity
  8
dim
  6
ByLayer
 62
  256
370
   -1
100
AcDbDimension
  2
*D10
 10
-80.07248651664446
 20
-15.96821262904182
 30
0
 11
-39.04999999999998
 21
-14.09321262904182
 31
0
 70
   32
 71
    5
  3
Standard
 53
0
210
0
220
0
230
1
100
AcDbAlignedDimension
 13
2.220446049250313e-016
 23
0.9999999999999999
 33
0
 14
-78.09999999999997
 24
18.50000067131123
 34
0
100
AcDbRotatedDimension
  0
CIRCLE
  5
173
100
AcDbEntity
  8
holders
  6
ByLayer
 62
  256
370
   -1
100
AcDbCircle
 10
-90.00000000000001
 20
6.713113347263855e-007
 40
2
  0
CIRCLE
  5
174
100
AcDbEntity
  8
holders
  6
ByLayer
 62
  256
370
   -1
100
AcDbCircle
 10
-109.9999999999999
 20
6.713113428549744e-007
 40
2
  0
CIRCLE
  5
175
100
AcDbEntity
  8
holders
  6
ByLayer
 62
  256
370
   -1
100
AcDbCircle
 10
-99.99999999999997
 20
10.0000006713113
 40
2
  0
CIRCLE
  5
176
100
AcDbEntity
  8
holders
  6
ByLayer
 62
  256
370
   -1
100
AcDbCircle
 10
-99.99999999999999
 20
-9.999999328688617
 40
2
  0
DIMENSION
  5
177
100
AcDbEntity
  8
dim
  6
ByLayer
 62
  256
370
   -1
100
AcDbDimension
  2
*D11
 10
-99.99999999999997
 20
-40
 30
0
 11
-49.99999999999999
 21
-38.125
 31
0
 70
   32
 71
    5
 72
    0
  3
Standard
 53
0
210
0
220
0
230
1
100
AcDbAlignedDimension
 13
0
 23
0
 33
0
 14
-99.99999999999997
 24
6.713113406275895e-007
 34
0
100
AcDbRotatedDimension
  0
DIMENSION
  5
178
100
AcDbEntity
  8
dim
  6
ByLayer
 62
  256
370
   -1
100
AcDbDimension
  2
*D12
 10
-26
 20
4.2599383553303
 30
0
 11
-27.875
 21
2.879970090450745
 31
0
 70
   32
 71
    5
 72
    0
  3
Standard
 53
0
210
0
220
0
230
1
100
AcDbAlignedDimension
 13
-23.09999998631248
 23
1.500001825571189
 33
0
 14
-22.09999998631247
 24
4.259938355330299
 34
0
 50
90
100
AcDbRotatedDimension
  0
DIMENSION
  5
179
100
AcDbEntity
  8
dim
  6
ByLayer
 62
  256
370
   -1
100
AcDbDimension
  2
*D13
 10
-78.22109954516135
 20
-10.41405171459249
 30
0
 11
-39.74999999999999
 21
-8.539051714592491
 31
0
 70
   32
 71
    5
  3
Standard
 53
0
210
0
220
0
230
1
100
AcDbAlignedDimension
 13
-1.399999999999999
 23
2.400000007476578
 33
0
 14
-78.09999999999997
 24
18.50000067131123
 34
0
100
AcDbRotatedDimension
  0
LINE
  5
17A
100
AcDbEntity
  8
0
  6
ByLayer
 62
  256
370
   -1
100
AcDbLine
 10
61.5
 20
20
 11
61.5
 21
21.57
  0
LINE
  5
17B
100
AcDbEntity
  8
0
  6
ByLayer
 62
  256
370
   -1
100
AcDbLine
 10
61.5
 20
21.57
 11
81
 21
21.57
  0
LINE
  5
17C
100
AcDbEntity
  8
0
  6
ByLayer
 62
  256
370
   -1
100
AcDbLine
 10
61
 20
21.57
 11
65
 21
21.57
  0
LINE
  5
17D
100
AcDbEntity
  8
0
  6
ByLayer
 62
  256
370
   -1
100
AcDbLine
 10
65
 20
21.57
 11
65
 21
26.57
  0
LINE
  5
17E
100
AcDbEntity
  8
0
  6
ByLayer
 62
  256
370
   -1
100
AcDbLine
 10
65
 20
26.57
 11
61
 21
26.57
  0
LINE
  5
17F
100
AcDbEntity
  8
0
  6
ByLayer
 62
  256
370
   -1
100
AcDbLine
 10
65.99505770707958
 20
21.57
 11
65.99505770707958
 21
26.57
  0
LINE
  5
180
100
AcDbEntity
  8
0
  6
ByLayer
 62
  256
370
   -1
100
AcDbLine
 10
65.99505770707958
 20
26.57
 11
65.40000000000001
 21
26.57
  0
LINE
  5
181
100
AcDbEntity
  8
0
  6
ByLayer
 62
  256
370
   -1
100
AcDbLine
 10
65.40000000000001
 20
26.57
 11
65.40000000000001
 21
27.27
  0
LINE
  5
182
100
AcDbEntity
  8
0
  6
ByLayer
 62
  256
370
   -1
100
AcDbLine
 10
65.40000000000001
 20
27.27
 11
69.17939544111266
 21
27.27
  0
LINE
  5
183
100
AcDbEntity
  8
0
  6
ByLayer
 62
  256
370
   -1
100
AcDbLine
 10
61
 20
28.57
 11
59.6
 21
28.57
  0
LINE
  5
184
100
AcDbEntity
  8
0
  6
ByLayer
 62
  256
370
   -1
100
AcDbLine
 10
61.5
 20
20
 11
81
 21
20
  0
LINE
  5
185
100
AcDbEntity
  8
0
  6
ByLayer
 62
  256
370
   -1
100
AcDbLine
 10
59.6
 20
28.57
 11
59.6
 21
21.57
  0
LINE
  5
186
100
AcDbEntity
  8
0
  6
ByLayer
 62
  256
370
   -1
100
AcDbLine
 10
61
 20
28.57
 11
61
 21
21.57
  0
LINE
  5
187
100
AcDbEntity
  8
0
  6
ByLayer
 62
  256
370
   -1
100
AcDbLine
 10
61.5
 20
20
 11
61.5
 21
17
  0
LINE
  5
188
100
AcDbEntity
  8
0
  6
ByLayer
 62
  256
370
   -1
100
AcDbLine
 10
81
 20
20
 11
81
 21
17
  0
LINE
  5
189
100
AcDbEntity
  8
0
  6
ByLayer
 62
  256
370
   -1
100
AcDbLine
 10
61.5
 20
17
 11
81
 21
17
  0
LINE
  5
18A
100
AcDbEntity
  8
0
  6
ByLayer
 62
  256
370
   -1
100
AcDbLine
 10
59.6
 20
21.57
 11
59.6
 21
16.57
  0
LINE
  5
18B
100
AcDbEntity
  8
0
  6
ByLayer
 62
  256
370
   -1
100
AcDbLine
 10
61
 20
21.57
 11
61
 21
16.57
  0
LINE
  5
18C
100
AcDbEntity
  8
0
  6
ByLayer
 62
  256
370
   -1
100
AcDbLine
 10
81
 20
21.57
 11
85
 21
21.57
  0
LINE
  5
18D
100
AcDbEntity
  8
0
  6
ByLayer
 62
  256
370
   -1
100
AcDbLine
 10
85
 20
28.56999999999999
 11
85
 21
21.56999999999999
  0
LINE
  5
18E
100
AcDbEntity
  8
0
  6
ByLayer
 62
  256
370
   -1
100
AcDbLine
 10
85
 20
21.56999999999999
 11
85
 21
16.56999999999999
  0
LINE
  5
18F
100
AcDbEntity
  8
0
  6
ByLayer
 62
  256
370
   -1
100
AcDbLine
 10
86.40000000000001
 20
28.56999999999999
 11
86.40000000000001
 21
21.56999999999999
  0
LINE
  5
190
100
AcDbEntity
  8
0
  6
ByLayer
 62
  256
370
   -1
100
AcDbLine
 10
86.40000000000001
 20
21.56999999999999
 11
86.40000000000001
 21
16.56999999999999
  0
LINE
  5
191
100
AcDbEntity
  8
0
  6
ByLayer
 62
  256
370
   -1
100
AcDbLine
 10
85
 20
28.56999999999999
 11
86.40000000000001
 21
28.56999999999999
  0
LINE
  5
192
100
AcDbEntity
  8
0
  6
ByLayer
 62
  256
370
   -1
100
AcDbLine
 10
61
 20
16.57
 11
61
 21
14.57
  0
LINE
  5
193
100
AcDbEntity
  8
0
  6
ByLayer
 62
  256
370
   -1
100
AcDbLine
 10
59.6
 20
16.57
 11
59.6
 21
14.57
  0
LINE
  5
194
100
AcDbEntity
  8
0
  6
ByLayer
 62
  256
370
   -1
100
AcDbLine
 10
59.6
 20
14.57
 11
61
 21
14.57
  0
LINE
  5
195
100
AcDbEntity
  8
0
  6
ByLayer
 62
  256
370
   -1
100
AcDbLine
 10
61
 20
16.57
 11
85
 21
16.57
  0
LINE
  5
196
100
AcDbEntity
  8
0
  6
ByLayer
 62
  256
370
   -1
100
AcDbLine
 10
85
 20
16.57
 11
85
 21
21.57
  0
LINE
  5
197
100
AcDbEntity
  8
0
  6
ByLayer
 62
  256
370
   -1
100
AcDbLine
 10
81
 20
16.57
 11
81
 21
21.57
  0
LINE
  5
198
100
AcDbEntity
  8
0
  6
ByLayer
 62
  256
370
   -1
100
AcDbLine
 10
85
 20
16.57
 11
85
 21
14.57
  0
LINE
  5
199
100
AcDbEntity
  8
0
  6
ByLayer
 62
  256
370
   -1
100
AcDbLine
 10
86.40000000000001
 20
16.56999999999999
 11
86.40000000000001
 21
14.56999999999999
  0
LINE
  5
19A
100
AcDbEntity
  8
0
  6
ByLayer
 62
  256
370
   -1
100
AcDbLine
 10
85
 20
14.57
 11
86.40000000000001
 21
14.56999999999999
  0
LINE
  5
19B
100
AcDbEntity
  8
0
  6
ByLayer
 62
  256
370
   -1
100
AcDbLine
 10
61
 20
14.57
 11
85
 21
14.57
  0
DIMENSION
  5
19C
100
AcDbEntity
  8
0
  6
ByLayer
 62
  256
370
   -1
100
AcDbDimension
  2
*D14
 10
58
 20
28.57
 30
0
 11
56.125
 21
27.57
 31
0
 70
   32
 71
    5
 72
    0
  3
Standard
 53
0
210
0
220
0
230
1
100
AcDbAlignedDimension
 13
61
 23
26.57
 33
0
 14
61
 24
28.57
 34
0
 50
90
100
AcDbRotatedDimension
  0
DIMENSION
  5
19D
100
AcDbEntity
  8
0
  6
ByLayer
 62
  256
370
   -1
100
AcDbDimension
  2
*D15
 10
52
 20
28
 30
0
 11
50.125
 21
21.57
 31
0
 70
   32
 71
    5
  3
Standard
 53
0
210
0
220
0
230
1
100
AcDbAlignedDimension
 13
59.6
 23
14.57
 33
0
 14
59.6
 24
28.57
 34
0
 50
90
100
AcDbRotatedDimension
  0
CIRCLE
  5
19E
100
AcDbEntity
  8
cover-mounts
  6
ByLayer
 62
  256
370
   -1
100
AcDbCircle
 10
-90
 20
27
 40
1
  0
LINE
  5
19F
100
AcDbEntity
  8
cover-mounts
  6
ByLayer
 62
  256
370
   -1
100
AcDbLine
 10
-90
 20
27
 11
-88
 21
27
  0
LINE
  5
1A0
100
AcDbEntity
  8
cover-mounts
  6
ByLayer
 62
  256
370
   -1
100
AcDbLine
 10
-90
 20
27
 11
-90
 21
29
  0
LINE
  5
1A1
100
AcDbEntity
  8
cover-mounts
  6
ByLayer
 62
  256
370
   -1
100
AcDbLine
 10
-86
 20
23
 11
-86
 21
33.84678057980233
  0
LINE
  5
1A2
100
AcDbEntity
  8
cover-mounts
  6
ByLayer
 62
  256
370
   -1
100
AcDbLine
 10
-100.3886316547401
 20
23
 11
-86
 21
23
  0
LINE
  5
1A3
100
AcDbEntity
  8
cover-mounts
  6
ByLayer
 62
  256
370
   -1
100
AcDbLine
 10
-111.1965039875341
 20
14.85255258864641
 11
-100.3886316547401
 21
23
  0
DIMENSION
  5
1A4
100
AcDbEntity
  8
dim
  6
ByLayer
 62
  256
370
   -1
100
AcDbDimension
  2
*D16
 10
-49
 20
6.000571133729649e-015
 30
0
 11
-50.875
 21
13.5
 31
0
 70
   32
 71
    5
 72
    0
  3
Standard
 53
0
210
0
220
0
230
1
100
AcDbAlignedDimension
 13
-90
 23
27
 33
0
 14
0
 24
0
 34
0
 50
90
100
AcDbRotatedDimension
  0
LINE
  5
1A5
100
AcDbEntity
  8
0
  6
ByLayer
 62
  256
370
   -1
100
AcDbLine
 10
-18.49999999999997
 20
1.500000671311227
 11
-2.499999999999972
 21
1.500000671311227
  0
LINE
  5
1A6
100
AcDbEntity
  8
0
  6
ByLayer
 62
  256
370
   -1
100
AcDbLine
 10
-19.49999999999997
 20
2.500000671311227
 11
-19.49999999999997
 21
18.50000067131123
  0
ARC
  5
1A7
100
AcDbEntity
  8
0
  6
ByLayer
 62
  256
370
   -1
100
AcDbCircle
 10
-18.49999999999997
 20
2.500000671311227
 40
1
100
AcDbArc
 50
180
 51
270
  0
ARC
  5
1A8
100
AcDbEntity
  8
0
  6
ByLayer
 62
  256
370
   -1
100
AcDbCircle
 10
-18.49999999999997
 20
37.55000067131123
 40
1
100
AcDbArc
 50
90
 51
180
  0
LINE
  5
1A9
100
AcDbEntity
  8
0
  6
ByLayer
 62
  256
370
   -1
100
AcDbLine
 10
-2.499999999999972
 20
38.55000067131123
 11
-18.49999999999997
 21
38.55000067131123
  0
ARC
  5
1AA
100
AcDbEntity
  8
0
  6
ByLayer
 62
  256
370
   -1
100
AcDbCircle
 10
-2.499999999999972
 20
37.55000067131123
 40
1
100
AcDbArc
 50
360
 51
90
  0
ARC
  5
1AB
100
AcDbEntity
  8
0
  6
ByLayer
 62
  256
370
   -1
100
AcDbCircle
 10
-2.499999999999972
 20
21.55000067131123
 40
1
100
AcDbArc
 50
270
 51
360
  0
ARC
  5
1AC
100
AcDbEntity
  8
0
  6
ByLayer
 62
  256
370
   -1
100
AcDbCircle
 10
-16.89999999999998
 20
35.95000067131135
 40
0.8
100
AcDbArc
 50
90
 51
180
  0
LINE
  5
1AD
100
AcDbEntity
  8
0
  6
ByLayer
 62
  256
370
   -1
100
AcDbLine
 10
-4.099999999999966
 20
36.75000067131124
 11
-16.89999999999998
 21
36.75000067131124
  0
ARC
  5
1AE
100
AcDbEntity
  8
0
  6
ByLayer
 62
  256
370
   -1
100
AcDbCircle
 10
-4.099999999999966
 20
35.95000067131135
 40
0.8
100
AcDbArc
 50
360
 51
90
  0
LINE
  5
1AF
100
AcDbEntity
  8
0
  6
ByLayer
 62
  256
370
   -1
100
AcDbLine
 10
-3.299999999999955
 20
35.95000067131135
 11
-3.299999999999955
 21
23.15000067131122
  0
ARC
  5
1B0
100
AcDbEntity
  8
0
  6
ByLayer
 62
  256
370
   -1
100
AcDbCircle
 10
-4.099999999999966
 20
23.15000067131122
 40
0.8
100
AcDbArc
 50
270
 51
360
  0
LINE
  5
1B1
100
AcDbEntity
  8
0
  6
ByLayer
 62
  256
370
   -1
100
AcDbLine
 10
-16.89999999999998
 20
22.35000067131132
 11
-4.099999999999966
 21
22.35000067131132
  0
LINE
  5
1B2
100
AcDbEntity
  8
0
  6
ByLayer
 62
  256
370
   -1
100
AcDbLine
 10
-17.69999999999996
 20
23.15000067131122
 11
-17.69999999999996
 21
35.95000067131135
  0
ARC
  5
1B3
100
AcDbEntity
  8
0
  6
ByLayer
 62
  256
370
   -1
100
AcDbCircle
 10
-16.89999999999998
 20
23.15000067131122
 40
0.8
100
AcDbArc
 50
180
 51
270
  0
LINE
  5
1B4
100
AcDbEntity
  8
0
  6
ByLayer
 62
  256
370
   -1
100
AcDbLine
 10
-18.49999999999997
 20
20.55000067131123
 11
-2.499999999999972
 21
20.55000067131123
  0
LINE
  5
1B5
100
AcDbEntity
  8
0
  6
ByLayer
 62
  256
370
   -1
100
AcDbLine
 10
-19.49999999999997
 20
21.55000067131123
 11
-19.49999999999997
 21
37.55000067131123
  0
ARC
  5
1B6
100
AcDbEntity
  8
0
  6
ByLayer
 62
  256
370
   -1
100
AcDbCircle
 10
-18.49999999999997
 20
21.55000067131123
 40
1
100
AcDbArc
 50
180
 51
270
  0
ARC
  5
1B7
100
AcDbEntity
  8
0
  6
ByLayer
 62
  256
370
   -1
100
AcDbCircle
 10
-37.54999999999997
 20
18.50000067131123
 40
1
100
AcDbArc
 50
90
 51
180
  0
LINE
  5
1B8
100
AcDbEntity
  8
0
  6
ByLayer
 62
  256
370
   -1
100
AcDbLine
 10
-21.54999999999997
 20
19.50000067131123
 11
-37.54999999999997
 21
19.50000067131123
  0
ARC
  5
1B9
100
AcDbEntity
  8
0
  6
ByLayer
 62
  256
370
   -1
100
AcDbCircle
 10
-21.54999999999997
 20
18.50000067131123
 40
1
100
AcDbArc
 50
360
 51
90
  0
ARC
  5
1BA
100
AcDbEntity
  8
0
  6
ByLayer
 62
  256
370
   -1
100
AcDbCircle
 10
-21.54999999999997
 20
2.500000671311227
 40
1
100
AcDbArc
 50
270
 51
360
  0
ARC
  5
1BB
100
AcDbEntity
  8
0
  6
ByLayer
 62
  256
370
   -1
100
AcDbCircle
 10
-35.94999999999998
 20
16.90000067131135
 40
0.8
100
AcDbArc
 50
90
 51
180
  0
LINE
  5
1BC
100
AcDbEntity
  8
0
  6
ByLayer
 62
  256
370
   -1
100
AcDbLine
 10
-23.14999999999997
 20
17.70000067131124
 11
-35.94999999999998
 21
17.70000067131124
  0
ARC
  5
1BD
100
AcDbEntity
  8
0
  6
ByLayer
 62
  256
370
   -1
100
AcDbCircle
 10
-23.14999999999997
 20
16.90000067131135
 40
0.8
100
AcDbArc
 50
360
 51
90
  0
LINE
  5
1BE
100
AcDbEntity
  8
0
  6
ByLayer
 62
  256
370
   -1
100
AcDbLine
 10
-22.34999999999996
 20
16.90000067131135
 11
-22.34999999999996
 21
4.100000671311221
  0
ARC
  5
1BF
100
AcDbEntity
  8
0
  6
ByLayer
 62
  256
370
   -1
100
AcDbCircle
 10
-23.14999999999997
 20
4.100000671311221
 40
0.8
100
AcDbArc
 50
270
 51
360
  0
LINE
  5
1C0
100
AcDbEntity
  8
0
  6
ByLayer
 62
  256
370
   -1
100
AcDbLine
 10
-35.94999999999998
 20
3.300000671311324
 11
-23.14999999999997
 21
3.300000671311324
  0
LINE
  5
1C1
100
AcDbEntity
  8
0
  6
ByLayer
 62
  256
370
   -1
100
AcDbLine
 10
-36.74999999999996
 20
4.100000671311221
 11
-36.74999999999996
 21
16.90000067131135
  0
ARC
  5
1C2
100
AcDbEntity
  8
0
  6
ByLayer
 62
  256
370
   -1
100
AcDbCircle
 10
-35.94999999999998
 20
4.100000671311221
 40
0.8
100
AcDbArc
 50
180
 51
270
  0
LINE
  5
1C3
100
AcDbEntity
  8
0
  6
ByLayer
 62
  256
370
   -1
100
AcDbLine
 10
-20.54999999999997
 20
18.50000067131123
 11
-20.54999999999997
 21
2.500000671311227
  0
LINE
  5
1C4
100
AcDbEntity
  8
0
  6
ByLayer
 62
  256
370
   -1
100
AcDbLine
 10
-37.54999999999997
 20
1.500000671311227
 11
-21.54999999999997
 21
1.500000671311227
  0
LINE
  5
1C5
100
AcDbEntity
  8
0
  6
ByLayer
 62
  256
370
   -1
100
AcDbLine
 10
-38.54999999999997
 20
2.500000671311227
 11
-38.54999999999997
 21
18.50000067131123
  0
ARC
  5
1C6
100
AcDbEntity
  8
0
  6
ByLayer
 62
  256
370
   -1
100
AcDbCircle
 10
-37.54999999999997
 20
2.500000671311227
 40
1
100
AcDbArc
 50
180
 51
270
  0
ARC
  5
1C7
100
AcDbEntity
  8
0
  6
ByLayer
 62
  256
370
   -1
100
AcDbCircle
 10
-37.54999999999997
 20
37.55000067131123
 40
1
100
AcDbArc
 50
90
 51
180
  0
LINE
  5
1C8
100
AcDbEntity
  8
0
  6
ByLayer
 62
  256
370
   -1
100
AcDbLine
 10
-21.54999999999997
 20
38.55000067131123
 11
-37.54999999999997
 21
38.55000067131123
  0
ARC
  5
1C9
100
AcDbEntity
  8
0
  6
ByLayer
 62
  256
370
   -1
100
AcDbCircle
 10
-21.54999999999997
 20
37.55000067131123
 40
1
100
AcDbArc
 50
360
 51
90
  0
ARC
  5
1CA
100
AcDbEntity
  8
0
  6
ByLayer
 62
  256
370
   -1
100
AcDbCircle
 10
-21.54999999999997
 20
21.55000067131123
 40
1
100
AcDbArc
 50
270
 51
360
  0
ARC
  5
1CB
100
AcDbEntity
  8
0
  6
ByLayer
 62
  256
370
   -1
100
AcDbCircle
 10
-35.94999999999998
 20
35.95000067131135
 40
0.8
100
AcDbArc
 50
90
 51
180
  0
LINE
  5
1CC
100
AcDbEntity
  8
0
  6
ByLayer
 62
  256
370
   -1
100
AcDbLine
 10
-23.14999999999997
 20
36.75000067131124
 11
-35.94999999999998
 21
36.75000067131124
  0
ARC
  5
1CD
100
AcDbEntity
  8
0
  6
ByLayer
 62
  256
370
   -1
100
AcDbCircle
 10
-23.14999999999997
 20
35.95000067131135
 40
0.8
100
AcDbArc
 50
360
 51
90
  0
LINE
  5
1CE
100
AcDbEntity
  8
0
  6
ByLayer
 62
  256
370
   -1
100
AcDbLine
 10
-22.34999999999996
 20
35.95000067131135
 11
-22.34999999999996
 21
23.15000067131122
  0
ARC
  5
1CF
100
AcDbEntity
  8
0
  6
ByLayer
 62
  256
370
   -1
100
AcDbCircle
 10
-23.14999999999997
 20
23.15000067131122
 40
0.8
100
AcDbArc
 50
270
 51
360
  0
LINE
  5
1D0
100
AcDbEntity
  8
0
  6
ByLayer
 62
  256
370
   -1
100
AcDbLine
 10
-35.94999999999998
 20
22.35000067131132
 11
-23.14999999999997
 21
22.35000067131132
  0
LINE
  5
1D1
100
AcDbEntity
  8
0
  6
ByLayer
 62
  256
370
   -1
100
AcDbLine
 10
-36.74999999999996
 20
23.15000067131122
 11
-36.74999999999996
 21
35.95000067131135
  0
ARC
  5
1D2
100
AcDbEntity
  8
0
  6
ByLayer
 62
  256
370
   -1
100
AcDbCircle
 10
-35.94999999999998
 20
23.15000067131122
 40
0.8
100
AcDbArc
 50
180
 51
270
  0
LINE
  5
1D3
100
AcDbEntity
  8
0
  6
ByLayer
 62
  256
370
   -1
100
AcDbLine
 10
-20.54999999999997
 20
37.55000067131123
 11
-20.54999999999997
 21
21.55000067131123
  0
LINE
  5
1D4
100
AcDbEntity
  8
0
  6
ByLayer
 62
  256
370
   -1
100
AcDbLine
 10
-37.54999999999997
 20
20.55000067131123
 11
-21.54999999999997
 21
20.55000067131123
  0
LINE
  5
1D5
100
AcDbEntity
  8
0
  6
ByLayer
 62
  256
370
   -1
100
AcDbLine
 10
-38.54999999999997
 20
21.55000067131123
 11
-38.54999999999997
 21
37.55000067131123
  0
ARC
  5
1D6
100
AcDbEntity
  8
0
  6
ByLayer
 62
  256
370
   -1
100
AcDbCircle
 10
-37.54999999999997
 20
21.55000067131123
 40
1
100
AcDbArc
 50
180
 51
270
  0
ARC
  5
1D7
100
AcDbEntity
  8
0
  6
ByLayer
 62
  256
370
   -1
100
AcDbCircle
 10
-56.59999999999997
 20
18.50000067131123
 40
1
100
AcDbArc
 50
90
 51
180
  0
LINE
  5
1D8
100
AcDbEntity
  8
0
  6
ByLayer
 62
  256
370
   -1
100
AcDbLine
 10
-40.59999999999997
 20
19.50000067131123
 11
-56.59999999999997
 21
19.50000067131123
  0
ARC
  5
1D9
100
AcDbEntity
  8
0
  6
ByLayer
 62
  256
370
   -1
100
AcDbCircle
 10
-40.59999999999997
 20
18.50000067131123
 40
1
100
AcDbArc
 50
360
 51
90
  0
ARC
  5
1DA
100
AcDbEntity
  8
0
  6
ByLayer
 62
  256
370
   -1
100
AcDbCircle
 10
-40.59999999999997
 20
2.500000671311227
 40
1
100
AcDbArc
 50
270
 51
360
  0
ARC
  5
1DB
100
AcDbEntity
  8
0
  6
ByLayer
 62
  256
370
   -1
100
AcDbCircle
 10
-54.99999999999999
 20
16.90000067131135
 40
0.8
100
AcDbArc
 50
90
 51
180
  0
LINE
  5
1DC
100
AcDbEntity
  8
0
  6
ByLayer
 62
  256
370
   -1
100
AcDbLine
 10
-42.19999999999997
 20
17.70000067131124
 11
-54.99999999999999
 21
17.70000067131124
  0
ARC
  5
1DD
100
AcDbEntity
  8
0
  6
ByLayer
 62
  256
370
   -1
100
AcDbCircle
 10
-42.19999999999997
 20
16.90000067131135
 40
0.8
100
AcDbArc
 50
360
 51
90
  0
LINE
  5
1DE
100
AcDbEntity
  8
0
  6
ByLayer
 62
  256
370
   -1
100
AcDbLine
 10
-41.39999999999996
 20
16.90000067131135
 11
-41.39999999999996
 21
4.100000671311221
  0
ARC
  5
1DF
100
AcDbEntity
  8
0
  6
ByLayer
 62
  256
370
   -1
100
AcDbCircle
 10
-42.19999999999997
 20
4.100000671311221
 40
0.8
100
AcDbArc
 50
270
 51
360
  0
LINE
  5
1E0
100
AcDbEntity
  8
0
  6
ByLayer
 62
  256
370
   -1
100
AcDbLine
 10
-54.99999999999999
 20
3.300000671311324
 11
-42.19999999999997
 21
3.300000671311324
  0
LINE
  5
1E1
100
AcDbEntity
  8
0
  6
ByLayer
 62
  256
370
   -1
100
AcDbLine
 10
-55.79999999999996
 20
4.100000671311221
 11
-55.79999999999996
 21
16.90000067131135
  0
ARC
  5
1E2
100
AcDbEntity
  8
0
  6
ByLayer
 62
  256
370
   -1
100
AcDbCircle
 10
-54.99999999999999
 20
4.100000671311221
 40
0.8
100
AcDbArc
 50
180
 51
270
  0
LINE
  5
1E3
100
AcDbEntity
  8
0
  6
ByLayer
 62
  256
370
   -1
100
AcDbLine
 10
-39.59999999999997
 20
18.50000067131123
 11
-39.59999999999997
 21
2.500000671311227
  0
LINE
  5
1E4
100
AcDbEntity
  8
0
  6
ByLayer
 62
  256
370
   -1
100
AcDbLine
 10
-56.59999999999997
 20
1.500000671311227
 11
-40.59999999999997
 21
1.500000671311227
  0
LINE
  5
1E5
100
AcDbEntity
  8
0
  6
ByLayer
 62
  256
370
   -1
100
AcDbLine
 10
-57.59999999999997
 20
2.500000671311227
 11
-57.59999999999997
 21
18.50000067131123
  0
ARC
  5
1E6
100
AcDbEntity
  8
0
  6
ByLayer
 62
  256
370
   -1
100
AcDbCircle
 10
-56.59999999999997
 20
2.500000671311227
 40
1
100
AcDbArc
 50
180
 51
270
  0
ARC
  5
1E7
100
AcDbEntity
  8
0
  6
ByLayer
 62
  256
370
   -1
100
AcDbCircle
 10
-56.59999999999997
 20
37.55000067131123
 40
1
100
AcDbArc
 50
90
 51
180
  0
LINE
  5
1E8
100
AcDbEntity
  8
0
  6
ByLayer
 62
  256
370
   -1
100
AcDbLine
 10
-40.59999999999997
 20
38.55000067131123
 11
-56.59999999999997
 21
38.55000067131123
  0
ARC
  5
1E9
100
AcDbEntity
  8
0
  6
ByLayer
 62
  256
370
   -1
100
AcDbCircle
 10
-40.59999999999997
 20
37.55000067131123
 40
1
100
AcDbArc
 50
360
 51
90
  0
ARC
  5
1EA
100
AcDbEntity
  8
0
  6
ByLayer
 62
  256
370
   -1
100
AcDbCircle
 10
-40.59999999999997
 20
21.55000067131123
 40
1
100
AcDbArc
 50
270
 51
360
  0
ARC
  5
1EB
100
AcDbEntity
  8
0
  6
ByLayer
 62
  256
370
   -1
100
AcDbCircle
 10
-54.99999999999999
 20
35.95000067131135
 40
0.8
100
AcDbArc
 50
90
 51
180
  0
LINE
  5
1EC
100
AcDbEntity
  8
0
  6
ByLayer
 62
  256
370
   -1
100
AcDbLine
 10
-42.19999999999997
 20
36.75000067131124
 11
-54.99999999999999
 21
36.75000067131124
  0
ARC
  5
1ED
100
AcDbEntity
  8
0
  6
ByLayer
 62
  256
370
   -1
100
AcDbCircle
 10
-42.19999999999997
 20
35.95000067131135
 40
0.8
100
AcDbArc
 50
360
 51
90
  0
LINE
  5
1EE
100
AcDbEntity
  8
0
  6
ByLayer
 62
  256
370
   -1
100
AcDbLine
 10
-41.39999999999996
 20
35.95000067131135
 11
-41.39999999999996
 21
23.15000067131122
  0
ARC
  5
1EF
100
AcDbEntity
  8
0
  6
ByLayer
 62
  256
370
   -1
100
AcDbCircle
 10
-42.19999999999997
 20
23.15000067131122
 40
0.8
100
AcDbArc
 50
270
 51
360
  0
LINE
  5
1F0
100
AcDbEntity
  8
0
  6
ByLayer
 62
  256
370
   -1
100
AcDbLine
 10
-54.99999999999999
 20
22.35000067131132
 11
-42.19999999999997
 21
22.35000067131132
  0
LINE
  5
1F1
100
AcDbEntity
  8
0
  6
ByLayer
 62
  256
370
   -1
100
AcDbLine
 10
-55.79999999999996
 20
23.15000067131122
 11
-55.79999999999996
 21
35.95000067131135
  0
ARC
  5
1F2
100
AcDbEntity
  8
0
  6
ByLayer
 62
  256
370
   -1
100
AcDbCircle
 10
-54.99999999999999
 20
23.15000067131122
 40
0.8
100
AcDbArc
 50
180
 51
270
  0
LINE
  5
1F3
100
AcDbEntity
  8
0
  6
ByLayer
 62
  256
370
   -1
100
AcDbLine
 10
-39.59999999999997
 20
37.55000067131123
 11
-39.59999999999997
 21
21.55000067131123
  0
LINE
  5
1F4
100
AcDbEntity
  8
0
  6
ByLayer
 62
  256
370
   -1
100
AcDbLine
 10
-56.59999999999997
 20
20.55000067131123
 11
-40.59999999999997
 21
20.55000067131123
  0
LINE
  5
1F5
100
AcDbEntity
  8
0
  6
ByLayer
 62
  256
370
   -1
100
AcDbLine
 10
-57.59999999999997
 20
21.55000067131123
 11
-57.59999999999997
 21
37.55000067131123
  0
ARC
  5
1F6
100
AcDbEntity
  8
0
  6
ByLayer
 62
  256
370
   -1
100
AcDbCircle
 10
-56.59999999999997
 20
21.55000067131123
 40
1
100
AcDbArc
 50
180
 51
270
  0
ARC
  5
1F7
100
AcDbEntity
  8
0
  6
ByLayer
 62
  256
370
   -1
100
AcDbCircle
 10
-75.64999999999998
 20
18.50000067131123
 40
1
100
AcDbArc
 50
90
 51
180
  0
LINE
  5
1F8
100
AcDbEntity
  8
0
  6
ByLayer
 62
  256
370
   -1
100
AcDbLine
 10
-59.64999999999998
 20
19.50000067131123
 11
-75.64999999999998
 21
19.50000067131123
  0
ARC
  5
1F9
100
AcDbEntity
  8
0
  6
ByLayer
 62
  256
370
   -1
100
AcDbCircle
 10
-59.64999999999998
 20
18.50000067131123
 40
1
100
AcDbArc
 50
360
 51
90
  0
ARC
  5
1FA
100
AcDbEntity
  8
0
  6
ByLayer
 62
  256
370
   -1
100
AcDbCircle
 10
-59.64999999999998
 20
2.500000671311227
 40
1
100
AcDbArc
 50
270
 51
360
  0
ARC
  5
1FB
100
AcDbEntity
  8
0
  6
ByLayer
 62
  256
370
   -1
100
AcDbCircle
 10
-74.04999999999998
 20
16.90000067131135
 40
0.8
100
AcDbArc
 50
90
 51
180
  0
LINE
  5
1FC
100
AcDbEntity
  8
0
  6
ByLayer
 62
  256
370
   -1
100
AcDbLine
 10
-61.24999999999997
 20
17.70000067131124
 11
-74.04999999999998
 21
17.70000067131124
  0
ARC
  5
1FD
100
AcDbEntity
  8
0
  6
ByLayer
 62
  256
370
   -1
100
AcDbCircle
 10
-61.24999999999997
 20
16.90000067131135
 40
0.8
100
AcDbArc
 50
360
 51
90
  0
LINE
  5
1FE
100
AcDbEntity
  8
0
  6
ByLayer
 62
  256
370
   -1
100
AcDbLine
 10
-60.44999999999996
 20
16.90000067131135
 11
-60.44999999999996
 21
4.100000671311221
  0
ARC
  5
1FF
100
AcDbEntity
  8
0
  6
ByLayer
 62
  256
370
   -1
100
AcDbCircle
 10
-61.24999999999997
 20
4.100000671311221
 40
0.8
100
AcDbArc
 50
270
 51
360
  0
LINE
  5
200
100
AcDbEntity
  8
0
  6
ByLayer
 62
  256
370
   -1
100
AcDbLine
 10
-74.04999999999998
 20
3.300000671311324
 11
-61.24999999999997
 21
3.300000671311324
  0
LINE
  5
201
100
AcDbEntity
  8
0
  6
ByLayer
 62
  256
370
   -1
100
AcDbLine
 10
-74.84999999999997
 20
4.100000671311221
 11
-74.84999999999997
 21
16.90000067131135
  0
ARC
  5
202
100
AcDbEntity
  8
0
  6
ByLayer
 62
  256
370
   -1
100
AcDbCircle
 10
-74.04999999999998
 20
4.100000671311221
 40
0.8
100
AcDbArc
 50
180
 51
270
  0
LINE
  5
203
100
AcDbEntity
  8
0
  6
ByLayer
 62
  256
370
   -1
100
AcDbLine
 10
-58.64999999999998
 20
18.50000067131123
 11
-58.64999999999998
 21
2.500000671311227
  0
LINE
  5
204
100
AcDbEntity
  8
0
  6
ByLayer
 62
  256
370
   -1
100
AcDbLine
 10
-75.64999999999998
 20
1.500000671311227
 11
-59.64999999999998
 21
1.500000671311227
  0
LINE
  5
205
100
AcDbEntity
  8
0
  6
ByLayer
 62
  256
370
   -1
100
AcDbLine
 10
-76.64999999999998
 20
2.500000671311227
 11
-76.64999999999998
 21
18.50000067131123
  0
ARC
  5
206
100
AcDbEntity
  8
0
  6
ByLayer
 62
  256
370
   -1
100
AcDbCircle
 10
-75.64999999999998
 20
2.500000671311227
 40
1
100
AcDbArc
 50
180
 51
270
  0
ARC
  5
207
100
AcDbEntity
  8
0
  6
ByLayer
 62
  256
370
   -1
100
AcDbCircle
 10
-75.64999999999998
 20
37.55000067131123
 40
1
100
AcDbArc
 50
90
 51
180
  0
LINE
  5
208
100
AcDbEntity
  8
0
  6
ByLayer
 62
  256
370
   -1
100
AcDbLine
 10
-59.64999999999998
 20
38.55000067131123
 11
-75.64999999999998
 21
38.55000067131123
  0
ARC
  5
209
100
AcDbEntity
  8
0
  6
ByLayer
 62
  256
370
   -1
100
AcDbCircle
 10
-59.64999999999998
 20
37.55000067131123
 40
1
100
AcDbArc
 50
360
 51
90
  0
ARC
  5
20A
100
AcDbEntity
  8
0
  6
ByLayer
 62
  256
370
   -1
100
AcDbCircle
 10
-59.64999999999998
 20
21.55000067131123
 40
1
100
AcDbArc
 50
270
 51
360
  0
ARC
  5
20B
100
AcDbEntity
  8
0
  6
ByLayer
 62
  256
370
   -1
100
AcDbCircle
 10
-74.04999999999998
 20
35.95000067131135
 40
0.8
100
AcDbArc
 50
90
 51
180
  0
LINE
  5
20C
100
AcDbEntity
  8
0
  6
ByLayer
 62
  256
370
   -1
100
AcDbLine
 10
-61.24999999999997
 20
36.75000067131124
 11
-74.04999999999998
 21
36.75000067131124
  0
ARC
  5
20D
100
AcDbEntity
  8
0
  6
ByLayer
 62
  256
370
   -1
100
AcDbCircle
 10
-61.24999999999997
 20
35.95000067131135
 40
0.8
100
AcDbArc
 50
360
 51
90
  0
LINE
  5
20E
100
AcDbEntity
  8
0
  6
ByLayer
 62
  256
370
   -1
100
AcDbLine
 10
-60.44999999999996
 20
35.95000067131135
 11
-60.44999999999996
 21
23.15000067131122
  0
ARC
  5
20F
100
AcDbEntity
  8
0
  6
ByLayer
 62
  256
370
   -1
100
AcDbCircle
 10
-61.24999999999997
 20
23.15000067131122
 40
0.8
100
AcDbArc
 50
270
 51
360
  0
LINE
  5
210
100
AcDbEntity
  8
0
  6
ByLayer
 62
  256
370
   -1
100
AcDbLine
 10
-74.04999999999998
 20
22.35000067131132
 11
-61.24999999999997
 21
22.35000067131132
  0
LINE
  5
211
100
AcDbEntity
  8
0
  6
ByLayer
 62
  256
370
   -1
100
AcDbLine
 10
-74.84999999999997
 20
23.15000067131122
 11
-74.84999999999997
 21
35.95000067131135
  0
ARC
  5
212
100
AcDbEntity
  8
0
  6
ByLayer
 62
  256
370
   -1
100
AcDbCircle
 10
-74.04999999999998
 20
23.15000067131122
 40
0.8
100
AcDbArc
 50
180
 51
270
  0
LINE
  5
213
100
AcDbEntity
  8
0
  6
ByLayer
 62
  256
370
   -1
100
AcDbLine
 10
-58.64999999999998
 20
37.55000067131123
 11
-58.64999999999998
 21
21.55000067131123
  0
LINE
  5
214
100
AcDbEntity
  8
0
  6
ByLayer
 62
  256
370
   -1
100
AcDbLine
 10
-75.64999999999998
 20
20.55000067131123
 11
-59.64999999999998
 21
20.55000067131123
  0
LINE
  5
215
100
AcDbEntity
  8
0
  6
ByLayer
 62
  256
370
   -1
100
AcDbLine
 10
-76.64999999999998
 20
21.55000067131123
 11
-76.64999999999998
 21
37.55000067131123
  0
ARC
  5
216
100
AcDbEntity
  8
0
  6
ByLayer
 62
  256
370
   -1
100
AcDbCircle
 10
-75.64999999999998
 20
21.55000067131123
 40
1
100
AcDbArc
 50
180
 51
270
  0
LINE
  5
217
100
AcDbEntity
  8
holders
  6
ByLayer
 62
  256
370
   -1
100
AcDbLine
 10
-2.700000130934727
 20
21.75000116707765
 11
-2.700000130934725
 21
37.35000118076504
  0
LINE
  5
218
100
AcDbEntity
  8
holders
  6
ByLayer
 62
  256
370
   -1
100
AcDbLine
 10
-18.30000013093473
 20
21.75000116707765
 11
-18.30000013093473
 21
37.35000118076504
  0
LINE
  5
219
100
AcDbEntity
  8
holders
  6
ByLayer
 62
  256
370
   -1
100
AcDbLine
 10
-18.30000013093473
 20
37.35000118076504
 11
-2.700000130934724
 21
37.35000118076504
  0
LINE
  5
21A
100
AcDbEntity
  8
holders
  6
ByLayer
 62
  256
370
   -1
100
AcDbLine
 10
-18.30000013093473
 20
21.75000116707765
 11
-2.700000130934727
 21
21.75000116707765
  0
LINE
  5
21B
100
AcDbEntity
  8
holders
  6
ByLayer
 62
  256
370
   -1
100
AcDbLine
 10
-21.75000013093472
 20
2.700001167077652
 11
-21.75000013093472
 21
18.30000118076504
  0
LINE
  5
21C
100
AcDbEntity
  8
holders
  6
ByLayer
 62
  256
370
   -1
100
AcDbLine
 10
-37.35000013093473
 20
2.700001167077648
 11
-37.35000013093473
 21
18.30000118076504
  0
LINE
  5
21D
100
AcDbEntity
  8
holders
  6
ByLayer
 62
  256
370
   -1
100
AcDbLine
 10
-37.35000013093473
 20
18.30000118076504
 11
-21.75000013093472
 21
18.30000118076504
  0
LINE
  5
21E
100
AcDbEntity
  8
holders
  6
ByLayer
 62
  256
370
   -1
100
AcDbLine
 10
-37.35000013093473
 20
2.700001167077648
 11
-21.75000013093472
 21
2.700001167077652
  0
LINE
  5
21F
100
AcDbEntity
  8
holders
  6
ByLayer
 62
  256
370
   -1
100
AcDbLine
 10
-21.75000013093472
 20
21.75000116707765
 11
-21.75000013093472
 21
37.35000118076504
  0
LINE
  5
220
100
AcDbEntity
  8
holders
  6
ByLayer
 62
  256
370
   -1
100
AcDbLine
 10
-37.35000013093473
 20
21.75000116707765
 11
-37.35000013093473
 21
37.35000118076504
  0
LINE
  5
221
100
AcDbEntity
  8
holders
  6
ByLayer
 62
  256
370
   -1
100
AcDbLine
 10
-37.35000013093473
 20
37.35000118076504
 11
-21.75000013093472
 21
37.35000118076504
  0
LINE
  5
222
100
AcDbEntity
  8
holders
  6
ByLayer
 62
  256
370
   -1
100
AcDbLine
 10
-37.35000013093473
 20
21.75000116707765
 11
-21.75000013093472
 21
21.75000116707765
  0
LINE
  5
223
100
AcDbEntity
  8
holders
  6
ByLayer
 62
  256
370
   -1
100
AcDbLine
 10
-40.80000013093472
 20
2.700001167077652
 11
-40.80000013093472
 21
18.30000118076504
  0
LINE
  5
224
100
AcDbEntity
  8
holders
  6
ByLayer
 62
  256
370
   -1
100
AcDbLine
 10
-56.40000013093473
 20
2.700001167077648
 11
-56.40000013093473
 21
18.30000118076504
  0
LINE
  5
225
100
AcDbEntity
  8
holders
  6
ByLayer
 62
  256
370
   -1
100
AcDbLine
 10
-56.40000013093473
 20
18.30000118076504
 11
-40.80000013093472
 21
18.30000118076504
  0
LINE
  5
226
100
AcDbEntity
  8
holders
  6
ByLayer
 62
  256
370
   -1
100
AcDbLine
 10
-56.40000013093473
 20
2.700001167077648
 11
-40.80000013093472
 21
2.700001167077652
  0
LINE
  5
227
100
AcDbEntity
  8
holders
  6
ByLayer
 62
  256
370
   -1
100
AcDbLine
 10
-40.80000013093472
 20
21.75000116707765
 11
-40.80000013093472
 21
37.35000118076504
  0
LINE
  5
228
100
AcDbEntity
  8
holders
  6
ByLayer
 62
  256
370
   -1
100
AcDbLine
 10
-56.40000013093473
 20
21.75000116707765
 11
-56.40000013093473
 21
37.35000118076504
  0
LINE
  5
229
100
AcDbEntity
  8
holders
  6
ByLayer
 62
  256
370
   -1
100
AcDbLine
 10
-56.40000013093473
 20
37.35000118076504
 11
-40.80000013093472
 21
37.35000118076504
  0
LINE
  5
22A
100
AcDbEntity
  8
holders
  6
ByLayer
 62
  256
370
   -1
100
AcDbLine
 10
-56.40000013093473
 20
21.75000116707765
 11
-40.80000013093472
 21
21.75000116707765
  0
LINE
  5
22B
100
AcDbEntity
  8
holders
  6
ByLayer
 62
  256
370
   -1
100
AcDbLine
 10
-59.85000013093472
 20
2.700001167077652
 11
-59.85000013093472
 21
18.30000118076504
  0
LINE
  5
22C
100
AcDbEntity
  8
holders
  6
ByLayer
 62
  256
370
   -1
100
AcDbLine
 10
-75.45000013093473
 20
2.700001167077648
 11
-75.45000013093473
 21
18.30000118076504
  0
LINE
  5
22D
100
AcDbEntity
  8
holders
  6
ByLayer
 62
  256
370
   -1
100
AcDbLine
 10
-75.45000013093473
 20
18.30000118076504
 11
-59.85000013093472
 21
18.30000118076504
  0
LINE
  5
22E
100
AcDbEntity
  8
holders
  6
ByLayer
 62
  256
370
   -1
100
AcDbLine
 10
-75.45000013093473
 20
2.700001167077648
 11
-59.85000013093472
 21
2.700001167077652
  0
LINE
  5
22F
100
AcDbEntity
  8
holders
  6
ByLayer
 62
  256
370
   -1
100
AcDbLine
 10
-59.85000013093472
 20
21.75000116707765
 11
-59.85000013093472
 21
37.35000118076504
  0
LINE
  5
230
100
AcDbEntity
  8
holders
  6
ByLayer
 62
  256
370
   -1
100
AcDbLine
 10
-75.45000013093473
 20
21.75000116707765
 11
-75.45000013093473
 21
37.35000118076504
  0
LINE
  5
231
100
AcDbEntity
  8
holders
  6
ByLayer
 62
  256
370
   -1
100
AcDbLine
 10
-75.45000013093473
 20
37.35000118076504
 11
-59.85000013093472
 21
37.35000118076504
  0
LINE
  5
232
100
AcDbEntity
  8
holders
  6
ByLayer
 62
  256
370
   -1
100
AcDbLine
 10
-75.45000013093473
 20
21.75000116707765
 11
-59.85000013093472
 21
21.75000116707765
  0
DIMENSION
  5
233
100
AcDbEntity
  8
dim
  6
ByLayer
 62
  256
370
   -1
100
AcDbDimension
  2
*D17
 10
14
 20
37.35000118076504
 30
0
 11
12.125
 21
29.55000117392134
 31
0
 70
   32
 71
    5
  3
Standard
 53
0
210
0
220
0
230
1
100
AcDbAlignedDimension
 13
-2.700000130934727
 23
21.75000116707765
 33
0
 14
-2.700000130934724
 24
37.35000118076504
 34
0
 50
90
100
AcDbRotatedDimension
  0
ARC
  5
234
100
AcDbEntity
  8
cover-mounts
  6
ByLayer
 62
  256
370
   -1
100
AcDbCircle
 10
-3.492424488381618
 20
20.02500089963511
 40
1.756757864525533
100
AcDbArc
 50
112.3317100071812
 51
247.6682429062436
  0
DIMENSION
  5
235
100
AcDbEntity
  8
dim
  6
ByLayer
 62
  256
370
   -1
100
AcDbDimension
  2
*D18
 10
19
 20
18.30000118076504
 30
0
 11
17.125
 21
20.02500117392135
 31
0
 70
   32
 71
    5
  3
Standard
 53
0
210
0
220
0
230
1
100
AcDbAlignedDimension
 13
-2.700000130934727
 23
21.65000116707765
 33
0
 14
-2.399999999999971
 24
18.40000118076504
 34
0
 50
90
100
AcDbRotatedDimension
  0
LINE
  5
236
100
AcDbEntity
  8
cover-mounts
  6
ByLayer
 62
  256
370
   -1
100
AcDbLine
 10
-86
 20
33.84678057980233
 11
-79.62836150829297
 21
38.65000067131124
  0
LINE
  5
237
100
AcDbEntity
  8
cover-mounts
  6
ByLayer
 62
  256
370
   -1
100
AcDbLine
 10
-112.039251599499
 20
15.9704866039297
 11
-80.09693878219677
 21
40.05000067131124
  0
LINE
  5
238
100
AcDbEntity
  8
cover-mounts
  6
ByLayer
 62
  256
370
   -1
100
AcDbLine
 10
-2.399999999999972
 20
38.65000067131123
 11
-79.62836150829297
 21
38.65000067131124
  0
ARC
  5
239
100
AcDbEntity
  8
cover-mounts
  6
ByLayer
 62
  256
370
   -1
100
AcDbCircle
 10
-2.399999999999972
 20
37.65000067131123
 40
1
100
AcDbArc
 50
0
 51
90
  0
LINE
  5
23A
100
AcDbEntity
  8
cover-mounts
  6
ByLayer
 62
  256
370
   -1
100
AcDbLine
 10
-1.999999999999972
 20
40.05000067131123
 11
-80.09693878219677
 21
40.05000067131124
  0
LINE
  5
23B
100
AcDbEntity
  8
cover-mounts
  6
ByLayer
 62
  256
370
   -1
100
AcDbLine
 10
2.757332703653221e-014
 20
38.05000067131123
 11
2.220446049250313e-016
 21
0.9999999999999999
  0
ARC
  5
23C
100
AcDbEntity
  8
cover-mounts
  6
ByLayer
 62
  256
370
   -1
100
AcDbCircle
 10
-1.999999999999972
 20
38.05000067131123
 40
2
100
AcDbArc
 50
0
 51
90
  0
DIMENSION
  5
23D
100
AcDbEntity
  8
dim
  6
ByLayer
 62
  256
370
   -1
100
AcDbDimension
  2
*D19
 10
40.74372591717042
 20
40.05000067131122
 30
0
 11
38.86872591717042
 21
20.02500033565562
 31
0
 70
   32
 71
    5
  3
Standard
 53
0
210
0
220
0
230
1
100
AcDbAlignedDimension
 13
-0.9999999999999998
 23
-1.110223024625157e-016
 33
0
 14
-1.999999999999972
 24
40.05000067131123
 34
0
 50
90
100
AcDbRotatedDimension
  0
DIMENSION
  5
23E
100
AcDbEntity
  8
dim
  6
ByLayer
 62
  256
370
   -1
100
AcDbDimension
  2
*D20
 10
35.83980894447274
 20
1.400000007476577
 30
0
 11
33.96480894447274
 21
20.02500033939391
 31
0
 70
   32
 71
    5
  3
Standard
 53
0
210
0
220
0
230
1
100
AcDbAlignedDimension
 13
-2.399999999999972
 23
38.65000067131123
 33
0
 14
-2.400000052698389
 24
1.400000007476581
 34
0
 50
90
100
AcDbRotatedDimension
  0
LINE
  5
23F
100
AcDbEntity
  8
cover-mounts
  6
ByLayer
 62
  256
370
   -1
100
AcDbLine
 10
-18.40000014462211
 20
35.89006344649002
 11
-18.40000014462211
 21
37.6500013116998
  0
ARC
  5
240
100
AcDbEntity
  8
cover-mounts
  6
ByLayer
 62
  256
370
   -1
100
AcDbCircle
 10
-17.40000014462211
 20
37.6500013116998
 40
1
100
AcDbArc
 50
90
 51
180
  0
ARC
  5
241
100
AcDbEntity
  8
cover-mounts
  6
ByLayer
 62
  256
370
   -1
100
AcDbCircle
 10
-20.02499986349218
 20
36.55757682331815
 40
1.756757864525533
100
AcDbArc
 50
202.3317100071812
 51
337.6682429062436
  0
CIRCLE
  5
242
100
AcDbEntity
  8
cover-mounts
  6
ByLayer
 62
  256
370
   -1
100
AcDbCircle
 10
-20.02499986349218
 20
36.55757682331815
 40
0.8
  0
LINE
  5
243
100
AcDbEntity
  8
0
  6
ByLayer
 62
  256
370
   -1
100
AcDbLine
 10
-1.499999999999972
 20
37.55000067131123
 11
-1.499999999999972
 21
21.55000067131123
  0
LINE
  5
244
100
AcDbEntity
  8
cover-mounts
  6
ByLayer
 62
  256
370
   -1
100
AcDbLine
 10
-1.399999999999973
 20
37.65000067131123
 11
-1.399999999999964
 21
22.65000116707765
  0
LINE
  5
245
100
AcDbEntity
  8
cover-mounts
  6
ByLayer
 62
  256
370
   -1
100
AcDbLine
 10
-4.159936529759128
 20
21.65000116707765
 11
-2.399999999999963
 21
21.65000116707765
  0
ARC
  5
246
100
AcDbEntity
  8
cover-mounts
  6
ByLayer
 62
  256
370
   -1
100
AcDbCircle
 10
-2.399999999999963
 20
22.65000116707765
 40
1
100
AcDbArc
 50
270
 51
0
  0
LINE
  5
247
100
AcDbEntity
  8
cover-mounts
  6
ByLayer
 62
  256
370
   -1
100
AcDbLine
 10
-21.65000013093472
 20
35.89006478194064
 11
-21.65000013093472
 21
37.6500013116998
  0
ARC
  5
248
100
AcDbEntity
  8
cover-mounts
  6
ByLayer
 62
  256
370
   -1
100
AcDbCircle
 10
-22.64999958236224
 20
37.6500013116998
 40
1
100
AcDbArc
 50
0
 51
90
  0
LINE
  5
249
100
AcDbEntity
  8
cover-mounts
  6
ByLayer
 62
  256
370
   -1
100
AcDbLine
 10
-56.50000014462211
 20
35.89006344649002
 11
-56.50000014462211
 21
37.6500013116998
  0
ARC
  5
24A
100
AcDbEntity
  8
cover-mounts
  6
ByLayer
 62
  256
370
   -1
100
AcDbCircle
 10
-55.50000014462211
 20
37.6500013116998
 40
1
100
AcDbArc
 50
90
 51
180
  0
ARC
  5
24B
100
AcDbEntity
  8
cover-mounts
  6
ByLayer
 62
  256
370
   -1
100
AcDbCircle
 10
-58.12499986349217
 20
36.55757682331815
 40
1.756757864525533
100
AcDbArc
 50
202.3317100071812
 51
337.6682429062436
  0
CIRCLE
  5
24C
100
AcDbEntity
  8
cover-mounts
  6
ByLayer
 62
  256
370
   -1
100
AcDbCircle
 10
-58.12499986349217
 20
36.55757682331815
 40
0.8
  0
LINE
  5
24D
100
AcDbEntity
  8
cover-mounts
  6
ByLayer
 62
  256
370
   -1
100
AcDbLine
 10
-59.75000013093472
 20
35.89006478194064
 11
-59.75000013093472
 21
37.6500013116998
  0
ARC
  5
24E
100
AcDbEntity
  8
cover-mounts
  6
ByLayer
 62
  256
370
   -1
100
AcDbCircle
 10
-60.74999958236224
 20
37.6500013116998
 40
1
100
AcDbArc
 50
0
 51
90
  0
DIMENSION
  5
24F
100
AcDbEntity
  8
dim
  6
ByLayer
 62
  256
370
   -1
100
AcDbDimension
  2
*D21
 10
-20.02499986349218
 20
45.93311023425773
 30
0
 11
-10.01249993174607
 21
47.80811023425773
 31
0
 70
   32
 71
    5
  3
Standard
 53
0
210
0
220
0
230
1
100
AcDbAlignedDimension
 13
2.775557561562891e-014
 23
38.05000067131123
 33
0
 14
-20.02499986349218
 24
36.55757682331815
 34
0
100
AcDbRotatedDimension
  0
DIMENSION
  5
250
100
AcDbEntity
  8
dim
  6
ByLayer
 62
  256
370
   -1
100
AcDbDimension
  2
*D22
 10
-58.12499986349217
 20
49.6231364430985
 30
0
 11
-29.06249993174607
 21
51.4981364430985
 31
0
 70
   32
 71
    5
  3
Standard
 53
0
210
0
220
0
230
1
100
AcDbAlignedDimension
 13
2.775557561562891e-014
 23
38.05000067131123
 33
0
 14
-58.12499986349217
 24
36.55757682331815
 34
0
100
AcDbRotatedDimension
  0
LINE
  5
251
100
AcDbEntity
  8
cover-mounts
  6
ByLayer
 62
  256
370
   -1
100
AcDbLine
 10
-1.399999999999964
 20
22.65000076016528
 11
-1.39999999999997
 21
17.40000131257927
  0
LINE
  5
252
100
AcDbEntity
  8
cover-mounts
  6
ByLayer
 62
  256
370
   -1
100
AcDbLine
 10
-18.30000013093473
 20
21.75000116707765
 11
-2.700000130934725
 21
18.30000118076504
  0
LINE
  5
253
100
AcDbEntity
  8
cover-mounts
  6
ByLayer
 62
  256
370
   -1
100
AcDbLine
 10
-18.30000013093473
 20
18.30000118076504
 11
-2.700000130934727
 21
21.75000116707765
  0
LINE
  5
254
100
AcDbEntity
  8
cover-mounts
  6
ByLayer
 62
  256
370
   -1
100
AcDbLine
 10
-20.50000013093473
 20
20.02500117392136
 11
-0.5000001309347279
 21
20.02500117392134
  0
CIRCLE
  5
255
100
AcDbEntity
  8
cover-mounts
  6
ByLayer
 62
  256
370
   -1
100
AcDbCircle
 10
-1.399999999999967
 20
20.02500117392134
 40
2
  0
CIRCLE
  5
256
100
AcDbEntity
  8
cover-mounts
  6
ByLayer
 62
  256
370
   -1
100
AcDbCircle
 10
-3.399999999999958
 20
20.02500117392134
 40
0.8
  0
DIMENSION
  5
257
100
AcDbEntity
  8
cover-mounts
  6
ByLayer
 62
  256
370
   -1
100
AcDbDimension
  2
*D23
 10
24.43160585277965
 20
-3.298949745715268e-015
 30
0
 11
22.55660585277965
 21
10.01250058696067
 31
0
 70
   32
 71
    5
  3
Standard
 53
0
210
0
220
0
230
1
100
AcDbAlignedDimension
 13
-3.399999999999967
 23
20.02500117392134
 33
0
 14
-0.9999999913438229
 24
-1.845791352532778e-016
 34
0
 50
90
100
AcDbRotatedDimension
  0
ENDSEC
  0
SECTION
  2
OBJECTS
  0
DICTIONARY
  5
C
330
0
100
AcDbDictionary
281
    1
  3
ACAD_GROUP
350
D
  0
DICTIONARY
  5
D
330
C
100
AcDbDictionary
281
    1
  0
PLOTSETTINGS
  5
258
100
AcDbPlotSettings
  6
1x1
 40
0
 41
0
 42
0
 43
0
  0
ENDSEC
  0
EOF
